<svg xmlns="http://www.w3.org/2000/svg" xmlns:xlink="http://www.w3.org/1999/xlink" width="24" zoomAndPan="magnify" viewBox="0 0 768 767.999994" height="24" preserveAspectRatio="xMidYMid meet" version="1.0"><path fill="#8f8f8f" d="M 762.863281 383.820312 C 734.609375 319.640625 688.375 265.730469 631.867188 222.089844 L 508.574219 345.3125 C 516.28125 363.28125 518.847656 378.6875 518.847656 399.222656 C 518.847656 473.671875 457.203125 535.28125 382.714844 535.28125 C 364.734375 535.28125 346.753906 532.714844 328.777344 525.011719 L 226.035156 627.699219 C 274.835938 648.238281 328.777344 658.503906 382.714844 658.503906 C 544.535156 658.503906 693.511719 563.519531 760.292969 414.625 L 768 399.222656 Z M 762.863281 383.820312 " fill-opacity="1" fill-rule="nonzero"/><path fill="#8f8f8f" d="M 634.433594 65.492188 L 531.691406 168.179688 C 518.847656 163.046875 506.007812 157.910156 493.164062 155.34375 C 297.953125 101.433594 89.898438 198.984375 7.707031 383.820312 L 0 399.222656 L 7.707031 414.625 C 30.824219 463.402344 61.644531 509.609375 102.742188 545.550781 C 110.449219 553.25 120.722656 560.953125 130.996094 568.65625 L 51.371094 650.804688 L 102.742188 702.148438 L 688.375 116.835938 Z M 256.855469 442.863281 C 251.71875 430.027344 249.152344 414.625 249.152344 399.222656 L 249.152344 396.65625 C 249.152344 322.207031 308.226562 263.164062 382.714844 263.164062 L 385.285156 263.164062 C 400.695312 263.164062 416.105469 265.730469 428.949219 270.867188 Z M 256.855469 442.863281 " fill-opacity="1" fill-rule="nonzero"/></svg>