<svg xmlns="http://www.w3.org/2000/svg" xmlns:xlink="http://www.w3.org/1999/xlink" width="35" zoomAndPan="magnify" viewBox="0 0 768 767.999994" height="35" preserveAspectRatio="xMidYMid meet" version="1.0"><defs><clipPath id="b0c45f3215"><path d="M 61 66 L 705 66 L 705 706.234375 L 61 706.234375 Z M 61 66 " clip-rule="nonzero"/></clipPath><clipPath id="a56e2f00dd"><path d="M 527.097656 453.710938 L 608.097656 453.710938 L 608.097656 534.710938 L 527.097656 534.710938 Z M 527.097656 453.710938 " clip-rule="nonzero"/></clipPath><clipPath id="e8f1008e40"><path d="M 47 52 L 721 52 L 721 721.351562 L 47 721.351562 Z M 47 52 " clip-rule="nonzero"/></clipPath><clipPath id="6a5449b54b"><path d="M 527.097656 448.816406 L 612.597656 448.816406 L 612.597656 534.316406 L 527.097656 534.316406 Z M 527.097656 448.816406 " clip-rule="nonzero"/></clipPath></defs><g clip-path="url(#b0c45f3215)"><path fill="#000000" d="M 700.484375 388.878906 C 699.042969 387.367188 697.363281 386.199219 695.445312 385.375 C 693.527344 384.550781 691.527344 384.132812 689.4375 384.125 L 459.363281 384.125 C 459.359375 382.871094 459.328125 381.617188 459.265625 380.363281 C 459.207031 379.109375 459.113281 377.859375 458.988281 376.609375 C 458.867188 375.363281 458.710938 374.117188 458.527344 372.875 C 458.34375 371.632812 458.125 370.398438 457.882812 369.167969 C 457.636719 367.9375 457.359375 366.714844 457.054688 365.496094 C 456.75 364.28125 456.414062 363.070312 456.050781 361.871094 C 455.6875 360.671875 455.292969 359.480469 454.867188 358.296875 C 454.445312 357.117188 453.992188 355.945312 453.511719 354.789062 C 453.03125 353.628906 452.523438 352.480469 451.988281 351.347656 C 451.449219 350.214844 450.886719 349.09375 450.292969 347.988281 C 449.703125 346.878906 449.082031 345.789062 448.4375 344.714844 C 447.792969 343.636719 447.121094 342.578125 446.421875 341.535156 C 445.726562 340.492188 445.003906 339.464844 444.253906 338.457031 C 443.507812 337.453125 442.734375 336.460938 441.941406 335.492188 C 441.144531 334.523438 440.324219 333.574219 439.480469 332.644531 C 438.636719 331.714844 437.773438 330.804688 436.886719 329.917969 C 436 329.03125 435.089844 328.167969 434.160156 327.324219 C 433.230469 326.484375 432.28125 325.664062 431.308594 324.867188 C 430.339844 324.070312 429.351562 323.300781 428.34375 322.554688 C 427.335938 321.804688 426.308594 321.085938 425.265625 320.386719 C 424.222656 319.691406 423.164062 319.019531 422.085938 318.375 C 421.007812 317.730469 419.917969 317.113281 418.8125 316.519531 C 417.703125 315.929688 416.585938 315.363281 415.449219 314.828125 C 414.316406 314.292969 413.167969 313.785156 412.007812 313.304688 C 410.851562 312.824219 409.679688 312.371094 408.5 311.949219 C 407.316406 311.527344 406.125 311.132812 404.925781 310.769531 C 403.722656 310.40625 402.515625 310.070312 401.296875 309.765625 C 400.082031 309.460938 398.855469 309.1875 397.625 308.941406 C 396.394531 308.699219 395.160156 308.484375 393.917969 308.300781 C 392.675781 308.117188 391.433594 307.960938 390.183594 307.839844 C 388.933594 307.714844 387.683594 307.625 386.429688 307.5625 C 385.179688 307.5 383.925781 307.46875 382.667969 307.46875 C 381.414062 307.46875 380.160156 307.5 378.90625 307.5625 C 377.652344 307.625 376.402344 307.714844 375.152344 307.839844 C 373.90625 307.960938 372.660156 308.117188 371.417969 308.300781 C 370.179688 308.484375 368.941406 308.699219 367.710938 308.941406 C 366.480469 309.1875 365.257812 309.460938 364.039062 309.765625 C 362.824219 310.070312 361.613281 310.40625 360.414062 310.769531 C 359.210938 311.132812 358.019531 311.527344 356.839844 311.949219 C 355.660156 312.371094 354.488281 312.824219 353.328125 313.304688 C 352.167969 313.785156 351.023438 314.292969 349.886719 314.828125 C 348.753906 315.363281 347.632812 315.929688 346.527344 316.519531 C 345.421875 317.113281 344.328125 317.730469 343.253906 318.375 C 342.175781 319.019531 341.117188 319.691406 340.074219 320.386719 C 339.03125 321.085938 338.003906 321.804688 336.996094 322.554688 C 335.988281 323.300781 335 324.070312 334.027344 324.867188 C 333.058594 325.664062 332.109375 326.484375 331.179688 327.324219 C 330.25 328.167969 329.339844 329.03125 328.453125 329.917969 C 327.566406 330.804688 326.699219 331.714844 325.855469 332.644531 C 325.015625 333.574219 324.195312 334.523438 323.398438 335.492188 C 322.601562 336.460938 321.832031 337.453125 321.082031 338.457031 C 320.335938 339.464844 319.613281 340.492188 318.914062 341.535156 C 318.21875 342.578125 317.546875 343.636719 316.902344 344.714844 C 316.253906 345.789062 315.636719 346.878906 315.042969 347.988281 C 314.453125 349.09375 313.886719 350.214844 313.351562 351.347656 C 312.816406 352.480469 312.304688 353.628906 311.824219 354.789062 C 311.34375 355.945312 310.894531 357.117188 310.46875 358.296875 C 310.046875 359.480469 309.652344 360.671875 309.289062 361.871094 C 308.921875 363.070312 308.589844 364.28125 308.28125 365.496094 C 307.976562 366.714844 307.703125 367.9375 307.457031 369.167969 C 307.210938 370.398438 306.996094 371.632812 306.8125 372.875 C 306.628906 374.117188 306.472656 375.363281 306.347656 376.609375 C 306.226562 377.859375 306.132812 379.109375 306.070312 380.363281 C 306.007812 381.617188 305.976562 382.871094 305.976562 384.125 C 305.886719 390.644531 306.757812 397.039062 308.585938 403.296875 C 309.03125 405.019531 309.539062 406.726562 310.105469 408.414062 C 310.671875 410.101562 311.292969 411.765625 311.976562 413.410156 C 312.660156 415.050781 313.398438 416.671875 314.191406 418.261719 C 314.988281 419.855469 315.835938 421.417969 316.738281 422.953125 C 317.644531 424.484375 318.597656 425.984375 319.605469 427.453125 C 320.613281 428.917969 321.671875 430.347656 322.777344 431.742188 C 323.886719 433.132812 325.042969 434.488281 326.242188 435.800781 C 327.445312 437.113281 328.691406 438.382812 329.980469 439.609375 C 331.269531 440.832031 332.601562 442.011719 333.972656 443.148438 C 335.34375 444.28125 336.753906 445.363281 338.203125 446.398438 C 339.648438 447.433594 341.132812 448.417969 342.648438 449.351562 C 344.164062 450.28125 345.710938 451.160156 347.289062 451.984375 C 348.867188 452.808594 350.46875 453.578125 352.101562 454.289062 C 353.730469 455.003906 355.382812 455.660156 357.058594 456.257812 C 358.738281 456.855469 360.433594 457.390625 362.144531 457.871094 C 363.859375 458.351562 365.585938 458.769531 367.332031 459.128906 L 367.332031 690.894531 C 367.332031 691.902344 367.429688 692.898438 367.625 693.886719 C 367.820312 694.875 368.113281 695.832031 368.5 696.765625 C 368.882812 697.695312 369.355469 698.578125 369.914062 699.414062 C 370.476562 700.253906 371.109375 701.027344 371.824219 701.742188 C 372.535156 702.453125 373.308594 703.089844 374.148438 703.648438 C 374.984375 704.207031 375.867188 704.679688 376.800781 705.066406 C 377.730469 705.449219 378.6875 705.742188 379.675781 705.9375 C 380.664062 706.132812 381.660156 706.234375 382.667969 706.234375 C 387.777344 706.238281 392.882812 706.125 397.984375 705.886719 C 403.085938 705.652344 408.179688 705.292969 413.265625 704.816406 C 418.351562 704.335938 423.421875 703.738281 428.480469 703.015625 C 433.535156 702.296875 438.574219 701.457031 443.589844 700.496094 C 448.605469 699.539062 453.597656 698.457031 458.5625 697.261719 C 463.527344 696.066406 468.464844 694.75 473.367188 693.320312 C 478.269531 691.886719 483.136719 690.339844 487.964844 688.675781 C 492.792969 687.011719 497.582031 685.234375 502.324219 683.34375 C 507.070312 681.453125 511.769531 679.449219 516.417969 677.335938 C 521.066406 675.222656 525.664062 672.996094 530.207031 670.664062 C 534.75 668.332031 539.238281 665.890625 543.664062 663.34375 C 548.09375 660.796875 552.457031 658.148438 556.757812 655.394531 C 561.058594 652.640625 565.292969 649.785156 569.460938 646.828125 C 573.625 643.871094 577.71875 640.820312 581.738281 637.667969 C 585.761719 634.519531 589.703125 631.273438 593.570312 627.9375 C 597.4375 624.597656 601.21875 621.171875 604.921875 617.652344 C 608.628906 614.136719 612.246094 610.53125 615.777344 606.839844 C 619.308594 603.152344 622.75 599.378906 626.101562 595.523438 C 629.453125 591.671875 632.714844 587.738281 635.878906 583.730469 C 639.042969 579.722656 642.113281 575.640625 645.082031 571.484375 C 648.054688 567.332031 650.925781 563.109375 653.695312 558.816406 C 656.464844 554.523438 659.132812 550.171875 661.695312 545.75 C 664.257812 541.332031 666.714844 536.855469 669.0625 532.320312 C 671.414062 527.785156 673.65625 523.199219 675.785156 518.558594 C 677.917969 513.914062 679.9375 509.226562 681.847656 504.488281 C 683.753906 499.75 685.550781 494.96875 687.230469 490.144531 C 688.914062 485.324219 690.480469 480.460938 691.929688 475.566406 C 693.378906 470.667969 694.710938 465.738281 695.925781 460.777344 C 697.140625 455.816406 698.238281 450.828125 699.21875 445.816406 C 700.195312 440.800781 701.054688 435.769531 701.792969 430.714844 C 702.53125 425.660156 703.148438 420.589844 703.648438 415.507812 C 704.144531 410.425781 704.523438 405.332031 704.777344 400.230469 C 704.871094 398.125 704.546875 396.085938 703.800781 394.113281 C 703.054688 392.140625 701.949219 390.394531 700.484375 388.878906 Z M 338.339844 394.863281 C 337.367188 391.347656 336.90625 387.769531 336.960938 384.125 C 336.960938 382.617188 337.035156 381.113281 337.183594 379.613281 C 337.328125 378.113281 337.550781 376.625 337.84375 375.148438 C 338.140625 373.667969 338.503906 372.210938 338.941406 370.765625 C 339.378906 369.324219 339.886719 367.90625 340.464844 366.515625 C 341.039062 365.125 341.683594 363.761719 342.394531 362.433594 C 343.105469 361.105469 343.878906 359.8125 344.714844 358.558594 C 345.550781 357.308594 346.449219 356.097656 347.40625 354.933594 C 348.363281 353.769531 349.371094 352.652344 350.4375 351.585938 C 351.503906 350.519531 352.617188 349.511719 353.785156 348.554688 C 354.949219 347.597656 356.15625 346.703125 357.410156 345.863281 C 358.664062 345.027344 359.957031 344.253906 361.285156 343.542969 C 362.613281 342.832031 363.972656 342.1875 365.367188 341.613281 C 366.757812 341.035156 368.175781 340.527344 369.617188 340.089844 C 371.058594 339.652344 372.519531 339.289062 374 338.992188 C 375.476562 338.699219 376.964844 338.480469 378.464844 338.332031 C 379.964844 338.183594 381.46875 338.109375 382.976562 338.109375 C 384.484375 338.109375 385.988281 338.183594 387.484375 338.332031 C 388.984375 338.480469 390.476562 338.699219 391.953125 338.992188 C 393.429688 339.289062 394.890625 339.652344 396.332031 340.089844 C 397.777344 340.527344 399.191406 341.035156 400.585938 341.613281 C 401.976562 342.1875 403.339844 342.832031 404.667969 343.542969 C 405.996094 344.253906 407.289062 345.027344 408.539062 345.863281 C 409.792969 346.703125 411.003906 347.597656 412.167969 348.554688 C 413.332031 349.511719 414.449219 350.519531 415.515625 351.585938 C 416.578125 352.652344 417.589844 353.769531 418.546875 354.933594 C 419.503906 356.097656 420.398438 357.308594 421.238281 358.558594 C 422.074219 359.8125 422.847656 361.105469 423.558594 362.433594 C 424.269531 363.761719 424.910156 365.125 425.488281 366.515625 C 426.066406 367.90625 426.574219 369.324219 427.011719 370.765625 C 427.449219 372.210938 427.8125 373.667969 428.105469 375.148438 C 428.402344 376.625 428.621094 378.113281 428.769531 379.613281 C 428.917969 381.113281 428.992188 382.617188 428.992188 384.125 C 429.042969 388.050781 428.484375 391.882812 427.304688 395.628906 C 426.972656 396.84375 426.589844 398.039062 426.160156 399.222656 C 425.726562 400.40625 425.25 401.566406 424.722656 402.710938 C 424.199219 403.855469 423.625 404.972656 423.007812 406.070312 C 422.390625 407.167969 421.726562 408.234375 421.019531 409.277344 C 420.316406 410.320312 419.566406 411.332031 418.78125 412.3125 C 417.992188 413.292969 417.164062 414.238281 416.296875 415.152344 C 415.429688 416.0625 414.527344 416.941406 413.589844 417.777344 C 412.652344 418.617188 411.679688 419.414062 410.675781 420.175781 C 409.671875 420.933594 408.640625 421.652344 407.578125 422.324219 C 406.515625 423 405.425781 423.628906 404.3125 424.214844 C 403.195312 424.796875 402.058594 425.335938 400.902344 425.828125 C 399.742188 426.320312 398.566406 426.761719 397.371094 427.160156 C 396.175781 427.554688 394.96875 427.898438 393.746094 428.195312 C 392.523438 428.492188 391.289062 428.738281 390.046875 428.929688 C 388.800781 429.125 387.554688 429.269531 386.296875 429.363281 C 385.042969 429.453125 383.785156 429.496094 382.527344 429.484375 C 381.269531 429.472656 380.011719 429.410156 378.761719 429.296875 C 377.507812 429.183594 376.261719 429.019531 375.019531 428.800781 C 373.78125 428.585938 372.550781 428.320312 371.332031 428.003906 C 370.117188 427.683594 368.914062 427.320312 367.726562 426.902344 C 366.539062 426.488281 365.367188 426.023438 364.21875 425.511719 C 363.070312 425 361.941406 424.441406 360.835938 423.839844 C 359.734375 423.234375 358.65625 422.585938 357.605469 421.894531 C 356.554688 421.203125 355.535156 420.46875 354.542969 419.691406 C 353.554688 418.914062 352.59375 418.097656 351.671875 417.246094 C 350.75 416.390625 349.859375 415.5 349.011719 414.570312 C 348.160156 413.644531 347.347656 412.683594 346.578125 411.6875 C 345.804688 410.695312 345.074219 409.671875 344.386719 408.617188 C 343.699219 407.5625 343.054688 406.484375 342.457031 405.375 C 341.859375 404.269531 341.304688 403.140625 340.800781 401.988281 C 340.292969 400.835938 339.835938 399.664062 339.425781 398.476562 C 339.011719 397.285156 338.652344 396.082031 338.339844 394.863281 Z M 398.3125 675.097656 L 398.3125 459.128906 C 401.304688 458.511719 404.25 457.722656 407.144531 456.753906 C 410.039062 455.785156 412.867188 454.648438 415.628906 453.34375 C 418.390625 452.035156 421.0625 450.570312 423.648438 448.945312 C 426.230469 447.320312 428.710938 445.546875 431.085938 443.625 C 433.457031 441.703125 435.707031 439.648438 437.835938 437.457031 C 439.964844 435.269531 441.953125 432.960938 443.804688 430.53125 C 445.660156 428.105469 447.359375 425.574219 448.910156 422.945312 C 450.460938 420.3125 451.847656 417.597656 453.074219 414.800781 L 672.875 414.800781 C 672.421875 419.066406 671.875 423.320312 671.234375 427.5625 C 670.59375 431.804688 669.859375 436.03125 669.035156 440.238281 C 668.207031 444.449219 667.289062 448.636719 666.277344 452.804688 C 665.265625 456.972656 664.160156 461.117188 662.964844 465.238281 C 661.769531 469.355469 660.484375 473.449219 659.109375 477.511719 C 657.734375 481.574219 656.269531 485.605469 654.71875 489.605469 C 653.164062 493.601562 651.523438 497.5625 649.792969 501.488281 C 648.066406 505.417969 646.25 509.300781 644.351562 513.148438 C 642.453125 516.992188 640.46875 520.796875 638.398438 524.554688 C 636.332031 528.3125 634.183594 532.023438 631.949219 535.6875 C 629.71875 539.347656 627.40625 542.960938 625.015625 546.523438 C 622.625 550.085938 620.15625 553.589844 617.609375 557.042969 C 615.0625 560.496094 612.441406 563.890625 609.746094 567.226562 C 607.050781 570.5625 604.28125 573.835938 601.441406 577.050781 C 598.601562 580.265625 595.691406 583.417969 592.710938 586.503906 C 589.730469 589.585938 586.6875 592.605469 583.574219 595.558594 C 580.460938 598.507812 577.285156 601.390625 574.042969 604.199219 C 570.804688 607.011719 567.503906 609.75 564.140625 612.414062 C 560.78125 615.082031 557.363281 617.671875 553.886719 620.183594 C 550.410156 622.699219 546.882812 625.136719 543.300781 627.492188 C 539.714844 629.851562 536.082031 632.128906 532.398438 634.328125 C 528.714844 636.527344 524.984375 638.640625 521.207031 640.675781 C 517.429688 642.707031 513.609375 644.65625 509.746094 646.523438 C 505.886719 648.386719 501.984375 650.164062 498.039062 651.855469 C 494.097656 653.550781 490.121094 655.152344 486.109375 656.671875 C 482.097656 658.1875 478.054688 659.613281 473.976562 660.953125 C 469.902344 662.289062 465.800781 663.539062 461.667969 664.695312 C 457.539062 665.851562 453.382812 666.917969 449.207031 667.890625 C 445.027344 668.863281 440.832031 669.746094 436.613281 670.535156 C 432.398438 671.320312 428.167969 672.015625 423.917969 672.617188 C 419.671875 673.21875 415.414062 673.726562 411.144531 674.140625 C 406.875 674.550781 402.597656 674.871094 398.3125 675.097656 Z M 341.253906 672.640625 L 341.253906 703.320312 C 336.628906 702.714844 332.015625 702.011719 327.417969 701.210938 C 322.824219 700.40625 318.246094 699.503906 313.6875 698.5 C 309.128906 697.5 304.597656 696.398438 300.085938 695.199219 C 295.578125 694 291.09375 692.703125 286.640625 691.308594 C 282.1875 689.914062 277.769531 688.425781 273.378906 686.839844 C 268.992188 685.253906 264.636719 683.570312 260.324219 681.796875 C 256.007812 680.019531 251.734375 678.152344 247.5 676.191406 C 243.265625 674.230469 239.074219 672.179688 234.929688 670.035156 C 230.785156 667.890625 226.6875 665.660156 222.640625 663.335938 C 218.589844 661.015625 214.59375 658.609375 210.652344 656.113281 C 206.707031 653.617188 202.820312 651.039062 198.988281 648.375 C 195.15625 645.710938 191.386719 642.964844 187.675781 640.136719 C 183.960938 637.308594 180.3125 634.402344 176.726562 631.417969 C 173.140625 628.429688 169.621094 625.367188 166.171875 622.226562 C 162.71875 619.089844 159.335938 615.875 156.023438 612.589844 C 152.710938 609.300781 149.46875 605.945312 146.300781 602.519531 C 143.136719 599.089844 140.042969 595.597656 137.027344 592.035156 C 134.015625 588.472656 131.078125 584.847656 128.21875 581.160156 C 125.363281 577.46875 122.585938 573.722656 119.890625 569.910156 C 117.195312 566.101562 114.585938 562.234375 112.058594 558.3125 C 109.53125 554.386719 107.09375 550.410156 104.738281 546.382812 C 102.386719 542.351562 100.121094 538.273438 97.945312 534.148438 C 95.765625 530.019531 93.679688 525.847656 91.6875 521.628906 C 89.691406 517.410156 87.789062 513.148438 85.976562 508.847656 C 84.167969 504.546875 82.453125 500.207031 80.832031 495.832031 C 79.210938 491.457031 77.683594 487.046875 76.253906 482.605469 C 74.824219 478.164062 73.492188 473.695312 72.257812 469.195312 C 71.019531 464.695312 69.882812 460.167969 68.84375 455.621094 C 67.804688 451.070312 66.867188 446.5 66.027344 441.910156 C 65.1875 437.320312 64.445312 432.714844 63.804688 428.09375 C 63.164062 423.46875 62.625 418.835938 62.1875 414.191406 C 61.75 409.542969 61.410156 404.890625 61.175781 400.230469 C 61.175781 395.167969 61.175781 389.648438 61.175781 384.125 C 61.25 379.023438 61.445312 373.925781 61.761719 368.832031 C 62.078125 363.738281 62.515625 358.65625 63.074219 353.585938 C 63.628906 348.511719 64.308594 343.457031 65.105469 338.417969 C 65.90625 333.378906 66.824219 328.359375 67.859375 323.363281 C 68.898438 318.367188 70.050781 313.398438 71.324219 308.457031 C 72.597656 303.515625 73.988281 298.609375 75.492188 293.734375 C 77 288.859375 78.621094 284.019531 80.355469 279.222656 C 82.09375 274.425781 83.941406 269.671875 85.902344 264.960938 C 87.867188 260.25 89.9375 255.589844 92.121094 250.976562 C 94.304688 246.367188 96.597656 241.808594 98.996094 237.304688 C 101.398438 232.800781 103.902344 228.359375 106.515625 223.976562 C 109.125 219.589844 111.839844 215.273438 114.65625 211.015625 C 117.472656 206.761719 120.386719 202.578125 123.402344 198.460938 C 126.417969 194.34375 129.53125 190.300781 132.738281 186.332031 C 135.945312 182.363281 139.246094 178.476562 142.636719 174.664062 C 146.03125 170.851562 149.511719 167.121094 153.082031 163.476562 C 156.652344 159.832031 160.304688 156.269531 164.042969 152.796875 C 167.78125 149.328125 171.601562 145.945312 175.5 142.652344 C 179.402344 139.363281 183.375 136.167969 187.425781 133.0625 C 191.480469 129.960938 195.601562 126.957031 199.796875 124.050781 C 203.988281 121.144531 208.25 118.339844 212.578125 115.636719 C 216.90625 112.933594 221.292969 110.335938 225.746094 107.839844 C 230.195312 105.34375 234.703125 102.957031 239.269531 100.675781 C 243.832031 98.394531 248.449219 96.222656 253.117188 94.160156 C 257.785156 92.101562 262.5 90.152344 267.257812 88.3125 C 272.019531 86.476562 276.820312 84.753906 281.664062 83.144531 C 286.503906 81.535156 291.382812 80.039062 296.296875 78.664062 C 301.207031 77.285156 306.152344 76.027344 311.125 74.882812 C 316.097656 73.742188 321.09375 72.71875 326.117188 71.8125 C 331.136719 70.90625 336.179688 70.121094 341.238281 69.457031 C 346.296875 68.789062 351.367188 68.246094 356.453125 67.820312 C 361.539062 67.398438 366.628906 67.09375 371.730469 66.910156 C 376.828125 66.730469 381.929688 66.667969 387.03125 66.726562 C 392.136719 66.789062 397.234375 66.96875 402.328125 67.269531 C 407.421875 67.574219 412.503906 67.996094 417.578125 68.539062 C 422.652344 69.082031 427.707031 69.746094 432.75 70.53125 C 437.792969 71.316406 442.8125 72.21875 447.8125 73.242188 C 452.8125 74.265625 457.78125 75.40625 462.726562 76.664062 C 467.671875 77.921875 472.585938 79.300781 477.464844 80.792969 C 482.34375 82.285156 487.183594 83.890625 491.988281 85.613281 C 496.789062 87.335938 501.550781 89.171875 506.265625 91.121094 C 510.980469 93.070312 515.648438 95.128906 520.265625 97.300781 C 524.882812 99.472656 529.449219 101.75 533.957031 104.136719 C 538.46875 106.523438 542.917969 109.019531 547.308594 111.617188 C 551.699219 114.214844 556.027344 116.917969 560.289062 119.722656 C 564.554688 122.527344 568.746094 125.429688 572.871094 128.433594 C 576.996094 131.4375 581.046875 134.539062 585.023438 137.734375 C 589 140.929688 592.902344 144.21875 596.722656 147.601562 C 600.542969 150.984375 604.28125 154.453125 607.9375 158.015625 C 611.59375 161.574219 615.164062 165.21875 618.648438 168.945312 C 622.128906 172.675781 625.523438 176.484375 628.824219 180.375 C 632.125 184.265625 635.332031 188.230469 638.445312 192.273438 C 641.558594 196.316406 644.574219 200.429688 647.492188 204.617188 C 650.410156 208.804688 653.230469 213.054688 655.945312 217.375 C 658.660156 221.695312 661.273438 226.078125 663.78125 230.523438 C 666.285156 234.964844 668.6875 239.464844 670.980469 244.023438 C 673.273438 248.582031 675.457031 253.191406 677.535156 257.855469 C 679.609375 262.515625 681.570312 267.226562 683.421875 271.980469 C 685.273438 276.734375 687.007812 281.53125 688.632812 286.371094 C 690.253906 291.207031 691.761719 296.082031 693.152344 300.988281 C 694.542969 305.898438 695.816406 310.839844 696.972656 315.808594 C 698.132812 320.777344 699.167969 325.773438 700.085938 330.792969 C 701.007812 335.8125 701.804688 340.847656 702.484375 345.90625 C 703.164062 350.964844 703.726562 356.035156 704.164062 361.117188 L 673.488281 361.117188 C 673.117188 356.484375 672.636719 351.863281 672.046875 347.25 C 671.457031 342.640625 670.757812 338.046875 669.949219 333.46875 C 669.136719 328.894531 668.21875 324.339844 667.191406 319.804688 C 666.164062 315.273438 665.027344 310.765625 663.78125 306.289062 C 662.539062 301.808594 661.191406 297.363281 659.734375 292.949219 C 658.277344 288.535156 656.714844 284.160156 655.050781 279.820312 C 653.382812 275.480469 651.617188 271.183594 649.746094 266.929688 C 647.875 262.671875 645.902344 258.464844 643.828125 254.304688 C 641.757812 250.144531 639.585938 246.035156 637.316406 241.980469 C 635.046875 237.921875 632.683594 233.921875 630.222656 229.980469 C 627.761719 226.035156 625.207031 222.15625 622.5625 218.332031 C 619.914062 214.511719 617.179688 210.757812 614.351562 207.066406 C 611.527344 203.375 608.613281 199.753906 605.613281 196.203125 C 602.613281 192.652344 599.53125 189.175781 596.367188 185.773438 C 593.199219 182.371094 589.957031 179.042969 586.632812 175.796875 C 583.304688 172.546875 579.90625 169.382812 576.429688 166.296875 C 572.953125 163.210938 569.40625 160.210938 565.785156 157.292969 C 562.164062 154.378906 558.476562 151.550781 554.722656 148.8125 C 550.96875 146.074219 547.148438 143.425781 543.265625 140.867188 C 539.386719 138.3125 535.445312 135.851562 531.445312 133.480469 C 527.445312 131.113281 523.390625 128.84375 519.28125 126.667969 C 515.175781 124.496094 511.015625 122.421875 506.808594 120.445312 C 502.601562 118.46875 498.347656 116.597656 494.050781 114.824219 C 489.753906 113.054688 485.417969 111.386719 481.039062 109.824219 C 476.664062 108.257812 472.25 106.800781 467.804688 105.445312 C 463.359375 104.09375 458.882812 102.847656 454.375 101.710938 C 449.867188 100.570312 445.335938 99.539062 440.78125 98.617188 C 436.226562 97.695312 431.652344 96.882812 427.054688 96.179688 C 422.460938 95.476562 417.851562 94.886719 413.230469 94.402344 C 408.605469 93.921875 403.976562 93.546875 399.335938 93.289062 C 394.695312 93.027344 390.050781 92.875 385.402344 92.839844 C 380.753906 92.800781 376.105469 92.871094 371.460938 93.054688 C 366.820312 93.238281 362.179688 93.535156 357.550781 93.9375 C 352.921875 94.34375 348.300781 94.859375 343.695312 95.488281 C 339.089844 96.113281 334.503906 96.851562 329.933594 97.695312 C 325.363281 98.542969 320.816406 99.496094 316.289062 100.558594 C 311.765625 101.625 307.269531 102.792969 302.800781 104.074219 C 298.332031 105.351562 293.894531 106.738281 289.492188 108.226562 C 285.089844 109.71875 280.726562 111.316406 276.398438 113.015625 C 272.074219 114.714844 267.792969 116.515625 263.550781 118.421875 C 259.3125 120.324219 255.121094 122.332031 250.976562 124.4375 C 246.832031 126.542969 242.742188 128.746094 238.703125 131.046875 C 234.664062 133.347656 230.683594 135.742188 226.757812 138.234375 C 222.835938 140.726562 218.972656 143.308594 215.171875 145.984375 C 211.371094 148.664062 207.636719 151.429688 203.96875 154.28125 C 200.300781 157.136719 196.703125 160.078125 193.175781 163.105469 C 189.648438 166.132812 186.199219 169.242188 182.820312 172.433594 C 179.441406 175.628906 176.140625 178.898438 172.917969 182.25 C 169.695312 185.597656 166.558594 189.023438 163.5 192.523438 C 160.441406 196.027344 157.46875 199.597656 154.582031 203.238281 C 151.695312 206.882812 148.894531 210.59375 146.1875 214.367188 C 143.476562 218.144531 140.859375 221.984375 138.332031 225.886719 C 135.808594 229.789062 133.375 233.75 131.039062 237.765625 C 128.703125 241.785156 126.464844 245.855469 124.324219 249.980469 C 122.179688 254.105469 120.140625 258.28125 118.195312 262.503906 C 116.253906 266.726562 114.414062 270.992188 112.679688 275.304688 C 110.941406 279.617188 109.304688 283.964844 107.777344 288.355469 C 106.246094 292.746094 104.824219 297.167969 103.503906 301.625 C 102.1875 306.082031 100.976562 310.570312 99.875 315.082031 C 98.769531 319.597656 97.777344 324.136719 96.890625 328.699219 C 96.003906 333.265625 95.226562 337.84375 94.558594 342.445312 C 93.894531 347.046875 93.335938 351.660156 92.890625 356.285156 C 92.445312 360.910156 92.109375 365.546875 91.882812 370.1875 C 91.660156 374.832031 91.546875 379.476562 91.542969 384.125 C 91.542969 389.03125 91.542969 393.941406 91.542969 398.542969 C 91.75 402.726562 92.046875 406.898438 92.433594 411.070312 C 92.820312 415.238281 93.296875 419.398438 93.863281 423.546875 C 94.429688 427.695312 95.085938 431.828125 95.828125 435.949219 C 96.570312 440.070312 97.40625 444.171875 98.324219 448.257812 C 99.246094 452.339844 100.253906 456.402344 101.351562 460.445312 C 102.445312 464.484375 103.628906 468.5 104.898438 472.492188 C 106.167969 476.480469 107.519531 480.441406 108.960938 484.375 C 110.402344 488.304688 111.925781 492.203125 113.53125 496.070312 C 115.140625 499.9375 116.832031 503.765625 118.601562 507.558594 C 120.375 511.351562 122.230469 515.105469 124.164062 518.816406 C 126.097656 522.53125 128.113281 526.199219 130.207031 529.828125 C 132.296875 533.453125 134.46875 537.035156 136.714844 540.566406 C 138.960938 544.097656 141.285156 547.582031 143.679688 551.015625 C 146.078125 554.449219 148.546875 557.828125 151.089844 561.152344 C 153.632812 564.480469 156.246094 567.75 158.929688 570.964844 C 161.617188 574.175781 164.367188 577.332031 167.1875 580.425781 C 170.007812 583.523438 172.890625 586.554688 175.84375 589.527344 C 178.792969 592.496094 181.804688 595.402344 184.882812 598.242188 C 187.957031 601.085938 191.09375 603.859375 194.289062 606.5625 C 197.484375 609.269531 200.734375 611.90625 204.042969 614.46875 C 207.351562 617.035156 210.714844 619.527344 214.132812 621.949219 C 217.546875 624.371094 221.015625 626.714844 224.53125 628.988281 C 228.050781 631.257812 231.613281 633.453125 235.226562 635.570312 C 238.835938 637.6875 242.492188 639.726562 246.195312 641.6875 C 249.894531 643.648438 253.632812 645.527344 257.414062 647.324219 C 261.195312 649.125 265.011719 650.839844 268.867188 652.476562 C 272.722656 654.109375 276.609375 655.660156 280.53125 657.125 C 284.453125 658.59375 288.40625 659.976562 292.386719 661.269531 C 296.367188 662.566406 300.375 663.777344 304.410156 664.902344 C 308.441406 666.023438 312.5 667.0625 316.574219 668.011719 C 320.652344 668.957031 324.75 669.820312 328.867188 670.59375 C 332.980469 671.363281 337.109375 672.046875 341.253906 672.640625 Z M 341.253906 547.632812 L 341.253906 579.230469 C 338.285156 578.59375 335.332031 577.894531 332.394531 577.125 C 329.457031 576.351562 326.539062 575.515625 323.636719 574.613281 C 320.738281 573.710938 317.859375 572.742188 315.007812 571.707031 C 312.152344 570.671875 309.320312 569.574219 306.515625 568.410156 C 303.710938 567.246094 300.933594 566.019531 298.183594 564.726562 C 295.4375 563.4375 292.71875 562.082031 290.03125 560.667969 C 287.34375 559.253906 284.691406 557.777344 282.070312 556.242188 C 279.449219 554.703125 276.867188 553.109375 274.320312 551.453125 C 271.773438 549.800781 269.265625 548.089844 266.796875 546.320312 C 264.328125 544.550781 261.902344 542.726562 259.515625 540.847656 C 257.132812 538.96875 254.789062 537.035156 252.492188 535.046875 C 250.195312 533.0625 247.945312 531.023438 245.742188 528.933594 C 243.539062 526.84375 241.382812 524.703125 239.277344 522.515625 C 237.171875 520.328125 235.117188 518.09375 233.113281 515.8125 C 231.109375 513.53125 229.15625 511.203125 227.261719 508.832031 C 225.363281 506.460938 223.519531 504.046875 221.734375 501.59375 C 219.945312 499.136719 218.214844 496.640625 216.542969 494.109375 C 214.867188 491.574219 213.253906 489.003906 211.699219 486.394531 C 210.140625 483.785156 208.644531 481.144531 207.210938 478.46875 C 205.777344 475.792969 204.402344 473.082031 203.089844 470.34375 C 201.78125 467.605469 200.53125 464.835938 199.347656 462.042969 C 198.160156 459.246094 197.039062 456.421875 195.984375 453.574219 C 194.929688 450.726562 193.9375 447.859375 193.011719 444.964844 C 192.089844 442.074219 191.230469 439.160156 190.4375 436.230469 C 189.644531 433.296875 188.921875 430.347656 188.265625 427.382812 C 187.605469 424.417969 187.019531 421.441406 186.496094 418.449219 C 185.976562 415.457031 185.523438 412.453125 185.140625 409.441406 C 184.753906 406.429688 184.441406 403.410156 184.195312 400.382812 C 183.949219 397.355469 183.773438 394.324219 183.664062 391.289062 C 183.558594 388.253906 183.519531 385.21875 183.550781 382.179688 C 183.582031 379.144531 183.683594 376.109375 183.851562 373.078125 C 184.023438 370.046875 184.261719 367.019531 184.570312 364 C 184.878906 360.976562 185.253906 357.964844 185.699219 354.960938 C 186.148438 351.957031 186.660156 348.964844 187.242188 345.984375 C 187.828125 343.003906 188.476562 340.039062 189.195312 337.085938 C 189.914062 334.136719 190.699219 331.203125 191.550781 328.289062 C 192.402344 325.371094 193.320312 322.480469 194.304688 319.605469 C 195.289062 316.734375 196.339844 313.882812 197.453125 311.058594 C 198.566406 308.234375 199.746094 305.4375 200.988281 302.664062 C 202.230469 299.894531 203.535156 297.152344 204.902344 294.441406 C 206.269531 291.730469 207.699219 289.050781 209.191406 286.402344 C 210.679688 283.757812 212.230469 281.144531 213.839844 278.570312 C 215.449219 275.996094 217.117188 273.457031 218.839844 270.957031 C 220.566406 268.460938 222.347656 266 224.183594 263.582031 C 226.023438 261.164062 227.914062 258.789062 229.859375 256.457031 C 231.804688 254.128906 233.804688 251.839844 235.855469 249.601562 C 237.90625 247.359375 240.007812 245.167969 242.15625 243.023438 C 244.308594 240.878906 246.507812 238.785156 248.753906 236.742188 C 251 234.699219 253.292969 232.707031 255.628906 230.769531 C 257.964844 228.828125 260.347656 226.945312 262.769531 225.113281 C 265.191406 223.285156 267.65625 221.511719 270.160156 219.792969 C 272.667969 218.074219 275.207031 216.414062 277.789062 214.816406 C 280.371094 213.214844 282.984375 211.671875 285.636719 210.1875 C 288.285156 208.707031 290.96875 207.285156 293.683594 205.925781 C 296.402344 204.566406 299.148438 203.269531 301.921875 202.039062 C 304.695312 200.804688 307.5 199.632812 310.328125 198.527344 C 313.15625 197.421875 316.007812 196.378906 318.882812 195.40625 C 321.757812 194.429688 324.65625 193.519531 327.574219 192.675781 C 330.492188 191.832031 333.425781 191.058594 336.378906 190.347656 C 339.332031 189.640625 342.300781 188.996094 345.28125 188.425781 C 348.265625 187.851562 351.257812 187.34375 354.261719 186.910156 C 357.269531 186.472656 360.28125 186.105469 363.304688 185.804688 C 366.328125 185.503906 369.355469 185.277344 372.386719 185.117188 C 375.417969 184.953125 378.453125 184.863281 381.492188 184.839844 C 384.527344 184.820312 387.5625 184.867188 390.597656 184.984375 C 393.632812 185.097656 396.664062 185.285156 399.691406 185.539062 C 402.714844 185.796875 405.734375 186.121094 408.746094 186.511719 C 411.757812 186.90625 414.757812 187.367188 417.75 187.898438 C 420.738281 188.425781 423.714844 189.027344 426.679688 189.691406 C 429.640625 190.359375 432.589844 191.089844 435.515625 191.890625 C 438.445312 192.691406 441.355469 193.558594 444.246094 194.492188 C 447.136719 195.429688 450.003906 196.425781 452.847656 197.492188 C 455.691406 198.554688 458.511719 199.683594 461.300781 200.878906 C 464.09375 202.074219 466.859375 203.328125 469.59375 204.648438 C 472.328125 205.96875 475.03125 207.351562 477.707031 208.792969 C 480.378906 210.238281 483.015625 211.742188 485.617188 213.304688 C 488.222656 214.867188 490.789062 216.492188 493.316406 218.171875 C 495.847656 219.851562 498.335938 221.589844 500.785156 223.386719 C 503.234375 225.179688 505.644531 227.03125 508.007812 228.933594 C 510.375 230.839844 512.695312 232.796875 514.96875 234.808594 C 517.246094 236.820312 519.476562 238.882812 521.65625 240.992188 C 523.835938 243.105469 525.96875 245.269531 528.054688 247.476562 C 530.136719 249.6875 532.167969 251.945312 534.148438 254.246094 C 536.125 256.550781 538.054688 258.898438 539.925781 261.289062 C 541.796875 263.679688 543.613281 266.113281 545.375 268.585938 C 547.136719 271.058594 548.839844 273.574219 550.488281 276.125 C 552.136719 278.675781 553.722656 281.265625 555.25 283.886719 C 556.777344 286.511719 558.246094 289.171875 559.652344 291.863281 C 561.058594 294.554688 562.40625 297.277344 563.6875 300.027344 C 564.96875 302.78125 566.1875 305.5625 567.34375 308.371094 C 568.5 311.179688 569.589844 314.011719 570.617188 316.871094 C 571.644531 319.730469 572.601562 322.609375 573.496094 325.511719 C 574.390625 328.414062 575.21875 331.335938 575.980469 334.277344 C 576.742188 337.214844 577.433594 340.171875 578.058594 343.144531 C 578.6875 346.113281 579.242188 349.097656 579.734375 352.097656 C 580.222656 355.09375 580.644531 358.101562 580.996094 361.117188 L 550.320312 361.117188 C 549.972656 358.605469 549.570312 356.105469 549.109375 353.613281 C 548.652344 351.125 548.136719 348.644531 547.5625 346.175781 C 546.992188 343.707031 546.367188 341.253906 545.683594 338.8125 C 545.003906 336.371094 544.265625 333.949219 543.476562 331.539062 C 542.6875 329.132812 541.839844 326.746094 540.941406 324.375 C 540.042969 322.007812 539.09375 319.660156 538.089844 317.335938 C 537.085938 315.007812 536.027344 312.707031 534.921875 310.425781 C 533.8125 308.148438 532.65625 305.894531 531.445312 303.667969 C 530.238281 301.441406 528.976562 299.246094 527.667969 297.074219 C 526.359375 294.90625 525.003906 292.765625 523.601562 290.65625 C 522.195312 288.550781 520.742188 286.472656 519.246094 284.429688 C 517.746094 282.386719 516.203125 280.378906 514.613281 278.40625 C 513.027344 276.429688 511.394531 274.496094 509.71875 272.59375 C 508.042969 270.695312 506.324219 268.832031 504.5625 267.011719 C 502.804688 265.1875 501.003906 263.40625 499.164062 261.664062 C 497.324219 259.921875 495.445312 258.222656 493.53125 256.566406 C 491.613281 254.910156 489.660156 253.296875 487.671875 251.726562 C 485.679688 250.15625 483.65625 248.632812 481.597656 247.15625 C 479.542969 245.679688 477.453125 244.246094 475.328125 242.863281 C 473.207031 241.480469 471.054688 240.144531 468.871094 238.859375 C 466.6875 237.570312 464.480469 236.335938 462.242188 235.148438 C 460.003906 233.960938 457.738281 232.824219 455.449219 231.738281 C 453.160156 230.652344 450.847656 229.621094 448.511719 228.640625 C 446.175781 227.660156 443.816406 226.730469 441.441406 225.855469 C 439.0625 224.980469 436.664062 224.160156 434.25 223.394531 C 431.835938 222.625 429.40625 221.914062 426.957031 221.257812 C 424.511719 220.597656 422.050781 219.996094 419.578125 219.449219 C 417.101562 218.90625 414.617188 218.414062 412.121094 217.980469 C 409.625 217.542969 407.121094 217.167969 404.609375 216.84375 C 402.09375 216.523438 399.574219 216.257812 397.050781 216.050781 C 394.527344 215.839844 391.996094 215.691406 389.464844 215.597656 C 386.933594 215.5 384.402344 215.464844 381.867188 215.484375 C 379.332031 215.503906 376.800781 215.582031 374.273438 215.714844 C 371.742188 215.847656 369.214844 216.039062 366.695312 216.285156 C 364.171875 216.535156 361.660156 216.839844 359.152344 217.199219 C 356.644531 217.558594 354.144531 217.976562 351.65625 218.449219 C 349.167969 218.925781 346.6875 219.453125 344.222656 220.039062 C 341.757812 220.625 339.308594 221.261719 336.871094 221.957031 C 334.4375 222.652344 332.015625 223.402344 329.613281 224.207031 C 327.210938 225.011719 324.828125 225.871094 322.464844 226.78125 C 320.101562 227.695312 317.757812 228.660156 315.4375 229.675781 C 313.117188 230.695312 310.820312 231.761719 308.546875 232.882812 C 306.277344 234.003906 304.03125 235.175781 301.8125 236.398438 C 299.589844 237.621094 297.402344 238.890625 295.238281 240.210938 C 293.074219 241.53125 290.945312 242.898438 288.84375 244.316406 C 286.742188 245.734375 284.675781 247.195312 282.640625 248.707031 C 280.605469 250.214844 278.605469 251.769531 276.640625 253.371094 C 274.675781 254.972656 272.75 256.613281 270.859375 258.300781 C 268.96875 259.988281 267.117188 261.714844 265.304688 263.484375 C 263.492188 265.257812 261.71875 267.066406 259.988281 268.917969 C 258.257812 270.765625 256.570312 272.652344 254.921875 274.578125 C 253.277344 276.507812 251.675781 278.46875 250.117188 280.464844 C 248.558594 282.464844 247.046875 284.496094 245.582031 286.5625 C 244.113281 288.628906 242.695312 290.726562 241.324219 292.859375 C 239.953125 294.988281 238.628906 297.148438 237.355469 299.335938 C 236.082031 301.527344 234.855469 303.746094 233.683594 305.988281 C 232.507812 308.234375 231.382812 310.503906 230.3125 312.800781 C 229.238281 315.097656 228.21875 317.414062 227.25 319.757812 C 226.285156 322.097656 225.371094 324.460938 224.507812 326.84375 C 223.648438 329.226562 222.839844 331.625 222.085938 334.046875 C 221.332031 336.464844 220.636719 338.898438 219.992188 341.351562 C 219.347656 343.800781 218.761719 346.265625 218.226562 348.742188 C 217.695312 351.21875 217.21875 353.707031 216.796875 356.203125 C 216.378906 358.703125 216.015625 361.210938 215.707031 363.726562 C 215.398438 366.238281 215.148438 368.761719 214.953125 371.285156 C 214.761719 373.8125 214.625 376.339844 214.542969 378.875 C 214.464844 381.40625 214.441406 383.9375 214.472656 386.472656 C 214.507812 389.007812 214.597656 391.539062 214.746094 394.066406 C 214.894531 396.597656 215.101562 399.121094 215.363281 401.640625 C 215.625 404.160156 215.941406 406.671875 216.316406 409.179688 C 216.691406 411.683594 217.125 414.179688 217.613281 416.667969 C 218.097656 419.152344 218.644531 421.628906 219.242188 424.089844 C 219.839844 426.550781 220.496094 429 221.203125 431.429688 C 221.914062 433.863281 222.675781 436.277344 223.496094 438.675781 C 224.3125 441.074219 225.183594 443.453125 226.109375 445.8125 C 227.035156 448.167969 228.011719 450.507812 229.042969 452.820312 C 230.074219 455.136719 231.15625 457.425781 232.289062 459.691406 C 233.421875 461.957031 234.605469 464.195312 235.839844 466.410156 C 237.074219 468.621094 238.359375 470.804688 239.691406 472.960938 C 241.023438 475.113281 242.40625 477.238281 243.832031 479.332031 C 245.261719 481.421875 246.738281 483.484375 248.257812 485.507812 C 249.78125 487.535156 251.347656 489.527344 252.957031 491.480469 C 254.566406 493.4375 256.222656 495.355469 257.917969 497.238281 C 259.617188 499.117188 261.355469 500.960938 263.136719 502.761719 C 264.917969 504.566406 266.738281 506.328125 268.597656 508.046875 C 270.457031 509.769531 272.351562 511.445312 274.289062 513.082031 C 276.222656 514.714844 278.195312 516.308594 280.203125 517.851562 C 282.207031 519.398438 284.25 520.898438 286.324219 522.355469 C 288.398438 523.808594 290.503906 525.214844 292.644531 526.574219 C 294.78125 527.933594 296.949219 529.246094 299.144531 530.507812 C 301.34375 531.769531 303.566406 532.980469 305.816406 534.144531 C 308.070312 535.304688 310.347656 536.414062 312.648438 537.476562 C 314.949219 538.535156 317.273438 539.539062 319.621094 540.496094 C 321.96875 541.449219 324.335938 542.351562 326.722656 543.199219 C 329.109375 544.046875 331.515625 544.839844 333.9375 545.578125 C 336.363281 546.320312 338.800781 547.003906 341.253906 547.632812 Z M 341.253906 547.632812 " fill-opacity="1" fill-rule="nonzero"/></g><g clip-path="url(#a56e2f00dd)"><path fill="#6b9080" d="M 608.097656 494.210938 C 608.097656 495.539062 608.03125 496.863281 607.902344 498.183594 C 607.769531 499.503906 607.578125 500.8125 607.316406 502.113281 C 607.058594 503.414062 606.738281 504.699219 606.351562 505.96875 C 605.96875 507.238281 605.519531 508.484375 605.011719 509.710938 C 604.507812 510.9375 603.941406 512.132812 603.3125 513.304688 C 602.6875 514.472656 602.007812 515.609375 601.269531 516.714844 C 600.535156 517.816406 599.746094 518.878906 598.902344 519.90625 C 598.0625 520.929688 597.171875 521.914062 596.234375 522.851562 C 595.296875 523.789062 594.316406 524.679688 593.289062 525.519531 C 592.265625 526.359375 591.199219 527.148438 590.097656 527.886719 C 588.996094 528.625 587.859375 529.304688 586.6875 529.929688 C 585.519531 530.554688 584.320312 531.121094 583.09375 531.628906 C 581.871094 532.136719 580.621094 532.582031 579.351562 532.96875 C 578.082031 533.351562 576.796875 533.675781 575.496094 533.933594 C 574.195312 534.191406 572.886719 534.386719 571.566406 534.515625 C 570.246094 534.648438 568.921875 534.710938 567.597656 534.710938 C 566.269531 534.710938 564.945312 534.648438 563.625 534.515625 C 562.308594 534.386719 560.996094 534.191406 559.695312 533.933594 C 558.394531 533.675781 557.109375 533.351562 555.839844 532.96875 C 554.570312 532.582031 553.324219 532.136719 552.097656 531.628906 C 550.871094 531.121094 549.675781 530.554688 548.503906 529.929688 C 547.335938 529.304688 546.199219 528.625 545.097656 527.886719 C 543.992188 527.148438 542.929688 526.359375 541.902344 525.519531 C 540.878906 524.679688 539.898438 523.789062 538.957031 522.851562 C 538.019531 521.914062 537.132812 520.929688 536.289062 519.90625 C 535.449219 518.878906 534.660156 517.816406 533.921875 516.714844 C 533.183594 515.609375 532.503906 514.472656 531.878906 513.304688 C 531.253906 512.132812 530.6875 510.9375 530.179688 509.710938 C 529.671875 508.484375 529.226562 507.238281 528.839844 505.96875 C 528.457031 504.699219 528.132812 503.414062 527.875 502.113281 C 527.617188 500.8125 527.421875 499.503906 527.292969 498.183594 C 527.160156 496.863281 527.097656 495.539062 527.097656 494.210938 C 527.097656 492.886719 527.160156 491.5625 527.292969 490.242188 C 527.421875 488.921875 527.617188 487.613281 527.875 486.3125 C 528.132812 485.011719 528.457031 483.726562 528.839844 482.457031 C 529.226562 481.1875 529.671875 479.9375 530.179688 478.714844 C 530.6875 477.488281 531.253906 476.289062 531.878906 475.121094 C 532.503906 473.949219 533.183594 472.816406 533.921875 471.710938 C 534.660156 470.609375 535.449219 469.542969 536.289062 468.519531 C 537.132812 467.496094 538.019531 466.511719 538.957031 465.574219 C 539.898438 464.636719 540.878906 463.746094 541.902344 462.90625 C 542.929688 462.0625 543.992188 461.273438 545.097656 460.539062 C 546.199219 459.800781 547.335938 459.121094 548.503906 458.496094 C 549.675781 457.871094 550.871094 457.304688 552.097656 456.796875 C 553.324219 456.289062 554.570312 455.839844 555.839844 455.457031 C 557.109375 455.070312 558.394531 454.75 559.695312 454.492188 C 560.996094 454.230469 562.308594 454.039062 563.625 453.90625 C 564.945312 453.777344 566.269531 453.710938 567.597656 453.710938 C 568.921875 453.710938 570.246094 453.777344 571.566406 453.90625 C 572.886719 454.039062 574.195312 454.230469 575.496094 454.492188 C 576.796875 454.75 578.082031 455.070312 579.351562 455.457031 C 580.621094 455.839844 581.871094 456.289062 583.09375 456.796875 C 584.320312 457.304688 585.519531 457.871094 586.6875 458.496094 C 587.859375 459.121094 588.996094 459.800781 590.097656 460.539062 C 591.199219 461.273438 592.265625 462.0625 593.289062 462.90625 C 594.316406 463.746094 595.296875 464.636719 596.234375 465.574219 C 597.171875 466.511719 598.0625 467.496094 598.902344 468.519531 C 599.746094 469.542969 600.535156 470.609375 601.269531 471.710938 C 602.007812 472.816406 602.6875 473.949219 603.3125 475.121094 C 603.941406 476.289062 604.507812 477.488281 605.011719 478.714844 C 605.519531 479.9375 605.96875 481.1875 606.351562 482.457031 C 606.738281 483.726562 607.058594 485.011719 607.316406 486.3125 C 607.578125 487.613281 607.769531 488.921875 607.902344 490.242188 C 608.03125 491.5625 608.097656 492.886719 608.097656 494.210938 Z M 608.097656 494.210938 " fill-opacity="1" fill-rule="nonzero"/></g><g clip-path="url(#e8f1008e40)"><path fill="#000000" d="M 716.0625 389.625 C 714.558594 388.046875 712.800781 386.824219 710.796875 385.960938 C 708.792969 385.097656 706.699219 384.664062 704.519531 384.65625 L 464.019531 384.65625 C 464.019531 383.34375 463.984375 382.03125 463.921875 380.722656 C 463.855469 379.414062 463.757812 378.105469 463.628906 376.800781 C 463.5 375.496094 463.339844 374.195312 463.148438 372.894531 C 462.953125 371.597656 462.730469 370.308594 462.472656 369.019531 C 462.214844 367.734375 461.929688 366.457031 461.609375 365.183594 C 461.289062 363.910156 460.941406 362.648438 460.558594 361.394531 C 460.175781 360.136719 459.765625 358.894531 459.324219 357.65625 C 458.878906 356.421875 458.410156 355.199219 457.90625 353.988281 C 457.402344 352.777344 456.871094 351.578125 456.3125 350.394531 C 455.75 349.207031 455.160156 348.035156 454.539062 346.878906 C 453.921875 345.722656 453.277344 344.582031 452.601562 343.457031 C 451.925781 342.332031 451.222656 341.226562 450.496094 340.136719 C 449.765625 339.046875 449.011719 337.972656 448.230469 336.921875 C 447.449219 335.867188 446.640625 334.832031 445.808594 333.820312 C 444.976562 332.804688 444.121094 331.8125 443.238281 330.84375 C 442.359375 329.871094 441.453125 328.921875 440.527344 327.996094 C 439.597656 327.066406 438.648438 326.164062 437.675781 325.28125 C 436.703125 324.402344 435.710938 323.546875 434.695312 322.714844 C 433.683594 321.882812 432.648438 321.074219 431.59375 320.292969 C 430.542969 319.511719 429.46875 318.757812 428.378906 318.03125 C 427.289062 317.300781 426.179688 316.601562 425.054688 315.925781 C 423.929688 315.253906 422.789062 314.605469 421.632812 313.988281 C 420.476562 313.371094 419.304688 312.78125 418.117188 312.21875 C 416.933594 311.660156 415.734375 311.128906 414.523438 310.625 C 413.3125 310.125 412.085938 309.652344 410.851562 309.210938 C 409.617188 308.769531 408.371094 308.359375 407.117188 307.976562 C 405.863281 307.597656 404.597656 307.246094 403.324219 306.929688 C 402.054688 306.609375 400.773438 306.324219 399.488281 306.066406 C 398.203125 305.8125 396.910156 305.585938 395.613281 305.394531 C 394.316406 305.203125 393.015625 305.042969 391.707031 304.914062 C 390.402344 304.785156 389.09375 304.6875 387.785156 304.625 C 386.476562 304.558594 385.164062 304.527344 383.851562 304.527344 C 382.542969 304.527344 381.230469 304.558594 379.921875 304.625 C 378.609375 304.6875 377.304688 304.785156 375.996094 304.914062 C 374.691406 305.042969 373.390625 305.203125 372.09375 305.394531 C 370.796875 305.585938 369.503906 305.8125 368.21875 306.066406 C 366.933594 306.324219 365.652344 306.609375 364.378906 306.929688 C 363.109375 307.246094 361.84375 307.597656 360.589844 307.976562 C 359.335938 308.359375 358.089844 308.769531 356.855469 309.210938 C 355.621094 309.652344 354.394531 310.125 353.183594 310.625 C 351.972656 311.128906 350.773438 311.660156 349.585938 312.21875 C 348.402344 312.78125 347.230469 313.371094 346.074219 313.988281 C 344.917969 314.605469 343.777344 315.253906 342.652344 315.925781 C 341.527344 316.601562 340.417969 317.300781 339.328125 318.03125 C 338.238281 318.757812 337.164062 319.511719 336.109375 320.292969 C 335.058594 321.074219 334.023438 321.882812 333.007812 322.714844 C 331.996094 323.546875 331.003906 324.402344 330.03125 325.28125 C 329.058594 326.164062 328.109375 327.066406 327.179688 327.996094 C 326.253906 328.921875 325.347656 329.871094 324.46875 330.84375 C 323.585938 331.8125 322.730469 332.804688 321.898438 333.820312 C 321.066406 334.832031 320.257812 335.867188 319.476562 336.921875 C 318.695312 337.972656 317.941406 339.046875 317.210938 340.136719 C 316.480469 341.226562 315.78125 342.332031 315.105469 343.457031 C 314.429688 344.582031 313.785156 345.722656 313.164062 346.878906 C 312.546875 348.035156 311.957031 349.207031 311.394531 350.394531 C 310.835938 351.578125 310.304688 352.777344 309.800781 353.988281 C 309.296875 355.199219 308.824219 356.421875 308.382812 357.65625 C 307.941406 358.894531 307.53125 360.136719 307.148438 361.394531 C 306.765625 362.648438 306.417969 363.910156 306.097656 365.183594 C 305.777344 366.457031 305.492188 367.734375 305.234375 369.019531 C 304.976562 370.308594 304.753906 371.597656 304.558594 372.894531 C 304.367188 374.195312 304.207031 375.496094 304.078125 376.800781 C 303.949219 378.105469 303.851562 379.414062 303.785156 380.722656 C 303.71875 382.03125 303.6875 383.34375 303.6875 384.65625 C 303.59375 391.472656 304.5 398.152344 306.414062 404.695312 C 306.878906 406.496094 307.410156 408.277344 308 410.042969 C 308.59375 411.804688 309.246094 413.546875 309.957031 415.265625 C 310.671875 416.984375 311.445312 418.675781 312.273438 420.339844 C 313.105469 422.003906 313.992188 423.636719 314.9375 425.242188 C 315.882812 426.84375 316.878906 428.410156 317.933594 429.945312 C 318.988281 431.476562 320.09375 432.972656 321.25 434.429688 C 322.40625 435.882812 323.613281 437.296875 324.871094 438.671875 C 326.128906 440.042969 327.429688 441.371094 328.777344 442.652344 C 330.125 443.933594 331.515625 445.164062 332.953125 446.351562 C 334.386719 447.535156 335.859375 448.667969 337.371094 449.75 C 338.886719 450.832031 340.433594 451.859375 342.019531 452.835938 C 343.605469 453.808594 345.222656 454.726562 346.871094 455.589844 C 348.519531 456.449219 350.195312 457.253906 351.898438 458 C 353.605469 458.742188 355.332031 459.429688 357.085938 460.054688 C 358.835938 460.679688 360.609375 461.242188 362.398438 461.742188 C 364.191406 462.242188 366 462.683594 367.820312 463.058594 L 367.820312 705.320312 C 367.820312 705.84375 367.847656 706.367188 367.898438 706.890625 C 367.949219 707.414062 368.027344 707.933594 368.128906 708.449219 C 368.230469 708.964844 368.359375 709.472656 368.511719 709.972656 C 368.664062 710.476562 368.839844 710.96875 369.039062 711.457031 C 369.242188 711.941406 369.464844 712.414062 369.714844 712.878906 C 369.960938 713.339844 370.230469 713.792969 370.523438 714.226562 C 370.8125 714.664062 371.125 715.085938 371.460938 715.492188 C 371.792969 715.898438 372.144531 716.285156 372.515625 716.65625 C 372.886719 717.027344 373.277344 717.382812 373.683594 717.714844 C 374.085938 718.046875 374.507812 718.359375 374.945312 718.652344 C 375.382812 718.941406 375.832031 719.210938 376.296875 719.460938 C 376.757812 719.707031 377.234375 719.933594 377.71875 720.132812 C 378.203125 720.332031 378.695312 720.511719 379.199219 720.664062 C 379.703125 720.816406 380.210938 720.941406 380.726562 721.046875 C 381.242188 721.148438 381.757812 721.226562 382.28125 721.277344 C 382.804688 721.328125 383.328125 721.351562 383.851562 721.351562 C 389.191406 721.359375 394.527344 721.238281 399.863281 720.992188 C 405.195312 720.746094 410.519531 720.371094 415.835938 719.871094 C 421.152344 719.371094 426.453125 718.742188 431.738281 717.992188 C 437.023438 717.238281 442.289062 716.359375 447.53125 715.359375 C 452.777344 714.355469 457.996094 713.226562 463.183594 711.976562 C 468.375 710.726562 473.53125 709.351562 478.660156 707.855469 C 483.785156 706.355469 488.871094 704.738281 493.917969 703 C 498.964844 701.261719 503.96875 699.40625 508.929688 697.429688 C 513.890625 695.453125 518.800781 693.359375 523.660156 691.148438 C 528.519531 688.9375 533.324219 686.613281 538.074219 684.171875 C 542.824219 681.734375 547.511719 679.183594 552.140625 676.523438 C 556.769531 673.859375 561.332031 671.089844 565.828125 668.210938 C 570.324219 665.332031 574.75 662.347656 579.105469 659.257812 C 583.460938 656.167969 587.738281 652.976562 591.941406 649.683594 C 596.144531 646.390625 600.265625 643 604.308594 639.511719 C 608.347656 636.023438 612.304688 632.4375 616.175781 628.761719 C 620.046875 625.085938 623.828125 621.316406 627.519531 617.460938 C 631.210938 613.601562 634.808594 609.660156 638.3125 605.632812 C 641.816406 601.601562 645.222656 597.492188 648.53125 593.304688 C 651.839844 589.113281 655.046875 584.84375 658.152344 580.503906 C 661.257812 576.160156 664.257812 571.746094 667.15625 567.257812 C 670.050781 562.773438 672.839844 558.222656 675.515625 553.601562 C 678.195312 548.984375 680.765625 544.304688 683.21875 539.566406 C 685.675781 534.824219 688.019531 530.027344 690.246094 525.175781 C 692.476562 520.324219 694.585938 515.421875 696.582031 510.46875 C 698.578125 505.515625 700.453125 500.519531 702.210938 495.476562 C 703.96875 490.4375 705.605469 485.355469 707.121094 480.238281 C 708.636719 475.117188 710.03125 469.964844 711.300781 464.777344 C 712.570312 459.59375 713.71875 454.378906 714.738281 449.140625 C 715.761719 443.898438 716.660156 438.636719 717.433594 433.355469 C 718.203125 428.070312 718.851562 422.773438 719.371094 417.460938 C 719.890625 412.144531 720.285156 406.824219 720.550781 401.488281 C 720.652344 399.289062 720.308594 397.15625 719.53125 395.09375 C 718.75 393.035156 717.59375 391.210938 716.0625 389.625 Z M 337.515625 395.878906 C 336.5 392.207031 336.015625 388.464844 336.074219 384.65625 C 336.074219 383.078125 336.152344 381.507812 336.304688 379.941406 C 336.460938 378.371094 336.691406 376.816406 337 375.269531 C 337.304688 373.726562 337.6875 372.199219 338.144531 370.691406 C 338.601562 369.183594 339.132812 367.703125 339.734375 366.246094 C 340.339844 364.792969 341.011719 363.371094 341.753906 361.980469 C 342.496094 360.589844 343.304688 359.242188 344.179688 357.933594 C 345.054688 356.621094 345.992188 355.359375 346.992188 354.140625 C 347.992188 352.921875 349.046875 351.757812 350.164062 350.644531 C 351.277344 349.53125 352.441406 348.472656 353.660156 347.472656 C 354.878906 346.472656 356.140625 345.535156 357.449219 344.660156 C 358.761719 343.785156 360.109375 342.976562 361.5 342.234375 C 362.890625 341.492188 364.3125 340.820312 365.765625 340.214844 C 367.222656 339.613281 368.703125 339.082031 370.210938 338.625 C 371.71875 338.167969 373.246094 337.785156 374.789062 337.480469 C 376.335938 337.171875 377.890625 336.941406 379.460938 336.785156 C 381.027344 336.632812 382.597656 336.554688 384.175781 336.554688 C 385.75 336.554688 387.320312 336.632812 388.886719 336.785156 C 390.457031 336.941406 392.011719 337.171875 393.558594 337.480469 C 395.101562 337.785156 396.628906 338.167969 398.136719 338.625 C 399.644531 339.082031 401.125 339.613281 402.582031 340.214844 C 404.035156 340.820312 405.457031 341.492188 406.847656 342.234375 C 408.238281 342.976562 409.585938 343.785156 410.898438 344.660156 C 412.207031 345.535156 413.46875 346.472656 414.6875 347.472656 C 415.90625 348.472656 417.070312 349.53125 418.1875 350.644531 C 419.300781 351.757812 420.355469 352.921875 421.355469 354.140625 C 422.355469 355.359375 423.292969 356.621094 424.167969 357.933594 C 425.042969 359.242188 425.851562 360.589844 426.59375 361.980469 C 427.335938 363.371094 428.007812 364.792969 428.613281 366.246094 C 429.214844 367.703125 429.746094 369.183594 430.203125 370.691406 C 430.660156 372.199219 431.042969 373.726562 431.347656 375.269531 C 431.65625 376.816406 431.886719 378.371094 432.042969 379.941406 C 432.195312 381.507812 432.273438 383.078125 432.273438 384.65625 C 432.328125 388.757812 431.742188 392.765625 430.511719 396.679688 C 430.164062 397.949219 429.761719 399.199219 429.3125 400.4375 C 428.863281 401.671875 428.363281 402.886719 427.8125 404.082031 C 427.261719 405.277344 426.664062 406.449219 426.019531 407.59375 C 425.371094 408.742188 424.679688 409.859375 423.941406 410.945312 C 423.203125 412.035156 422.421875 413.09375 421.597656 414.117188 C 420.773438 415.144531 419.910156 416.132812 419.003906 417.085938 C 418.097656 418.042969 417.15625 418.957031 416.175781 419.832031 C 415.191406 420.710938 414.179688 421.542969 413.128906 422.339844 C 412.078125 423.132812 411 423.878906 409.890625 424.585938 C 408.777344 425.289062 407.640625 425.949219 406.476562 426.558594 C 405.3125 427.171875 404.121094 427.734375 402.910156 428.246094 C 401.699219 428.761719 400.472656 429.226562 399.222656 429.636719 C 397.972656 430.050781 396.710938 430.414062 395.429688 430.722656 C 394.152344 431.03125 392.863281 431.289062 391.5625 431.492188 C 390.265625 431.695312 388.957031 431.84375 387.644531 431.941406 C 386.335938 432.039062 385.019531 432.078125 383.707031 432.070312 C 382.390625 432.058594 381.078125 431.992188 379.765625 431.875 C 378.457031 431.753906 377.152344 431.582031 375.859375 431.355469 C 374.5625 431.128906 373.277344 430.851562 372.003906 430.519531 C 370.730469 430.1875 369.472656 429.804688 368.230469 429.371094 C 366.992188 428.9375 365.769531 428.453125 364.566406 427.917969 C 363.363281 427.382812 362.1875 426.800781 361.03125 426.167969 C 359.878906 425.535156 358.753906 424.859375 357.65625 424.136719 C 356.554688 423.410156 355.488281 422.644531 354.453125 421.832031 C 353.417969 421.019531 352.417969 420.167969 351.453125 419.273438 C 350.488281 418.382812 349.558594 417.449219 348.671875 416.480469 C 347.78125 415.511719 346.933594 414.507812 346.125 413.46875 C 345.320312 412.429688 344.558594 411.359375 343.835938 410.257812 C 343.117188 409.15625 342.445312 408.027344 341.820312 406.867188 C 341.195312 405.710938 340.617188 404.53125 340.085938 403.328125 C 339.558594 402.121094 339.078125 400.898438 338.648438 399.65625 C 338.21875 398.410156 337.84375 397.152344 337.515625 395.878906 Z M 400.207031 688.804688 L 400.207031 463.058594 C 403.332031 462.414062 406.410156 461.585938 409.4375 460.574219 C 412.464844 459.5625 415.421875 458.371094 418.304688 457.007812 C 421.191406 455.640625 423.984375 454.109375 426.6875 452.410156 C 429.390625 450.714844 431.980469 448.859375 434.460938 446.851562 C 436.941406 444.84375 439.296875 442.695312 441.519531 440.40625 C 443.742188 438.117188 445.824219 435.703125 447.761719 433.164062 C 449.695312 430.625 451.472656 427.980469 453.09375 425.230469 C 454.714844 422.480469 456.164062 419.644531 457.445312 416.722656 L 687.203125 416.722656 C 686.730469 421.179688 686.160156 425.625 685.488281 430.058594 C 684.820312 434.492188 684.054688 438.910156 683.1875 443.308594 C 682.324219 447.710938 681.363281 452.089844 680.304688 456.445312 C 679.25 460.804688 678.09375 465.136719 676.847656 469.441406 C 675.597656 473.746094 674.253906 478.023438 672.816406 482.273438 C 671.378906 486.519531 669.847656 490.730469 668.222656 494.910156 C 666.601562 499.089844 664.886719 503.234375 663.078125 507.335938 C 661.273438 511.441406 659.375 515.503906 657.390625 519.523438 C 655.402344 523.542969 653.328125 527.515625 651.167969 531.445312 C 649.007812 535.375 646.757812 539.253906 644.425781 543.082031 C 642.09375 546.910156 639.675781 550.6875 637.179688 554.410156 C 634.679688 558.132812 632.097656 561.796875 629.4375 565.40625 C 626.773438 569.015625 624.035156 572.5625 621.21875 576.050781 C 618.398438 579.539062 615.503906 582.960938 612.535156 586.320312 C 609.566406 589.679688 606.523438 592.972656 603.410156 596.199219 C 600.296875 599.425781 597.113281 602.578125 593.859375 605.664062 C 590.605469 608.75 587.28125 611.761719 583.894531 614.699219 C 580.507812 617.636719 577.058594 620.5 573.546875 623.285156 C 570.03125 626.070312 566.460938 628.777344 562.828125 631.40625 C 559.195312 634.035156 555.503906 636.582031 551.757812 639.046875 C 548.015625 641.511719 544.214844 643.894531 540.367188 646.191406 C 536.515625 648.488281 532.617188 650.699219 528.667969 652.824219 C 524.71875 654.953125 520.726562 656.988281 516.6875 658.9375 C 512.648438 660.886719 508.570312 662.746094 504.449219 664.515625 C 500.332031 666.285156 496.171875 667.960938 491.980469 669.546875 C 487.785156 671.132812 483.558594 672.625 479.296875 674.023438 C 475.039062 675.421875 470.75 676.726562 466.429688 677.933594 C 462.113281 679.144531 457.769531 680.257812 453.40625 681.273438 C 449.039062 682.292969 444.648438 683.210938 440.242188 684.035156 C 435.835938 684.859375 431.410156 685.585938 426.972656 686.214844 C 422.53125 686.84375 418.082031 687.375 413.617188 687.804688 C 409.15625 688.238281 404.683594 688.570312 400.207031 688.804688 Z M 340.5625 686.242188 L 340.5625 718.308594 C 335.726562 717.675781 330.90625 716.941406 326.101562 716.101562 C 321.296875 715.261719 316.511719 714.320312 311.746094 713.269531 C 306.984375 712.222656 302.246094 711.074219 297.53125 709.820312 C 292.816406 708.566406 288.132812 707.210938 283.476562 705.753906 C 278.820312 704.296875 274.199219 702.738281 269.613281 701.082031 C 265.027344 699.421875 260.476562 697.664062 255.964844 695.808594 C 251.453125 693.953125 246.984375 692 242.558594 689.949219 C 238.132812 687.902344 233.753906 685.753906 229.421875 683.515625 C 225.089844 681.273438 220.804688 678.941406 216.574219 676.515625 C 212.34375 674.089844 208.167969 671.570312 204.042969 668.964844 C 199.921875 666.355469 195.859375 663.660156 191.855469 660.875 C 187.847656 658.089844 183.90625 655.21875 180.027344 652.265625 C 176.144531 649.308594 172.332031 646.269531 168.582031 643.148438 C 164.835938 640.027344 161.15625 636.824219 157.546875 633.542969 C 153.9375 630.261719 150.402344 626.902344 146.941406 623.46875 C 143.476562 620.03125 140.089844 616.523438 136.78125 612.941406 C 133.46875 609.359375 130.238281 605.707031 127.085938 601.984375 C 123.933594 598.261719 120.867188 594.472656 117.878906 590.613281 C 114.890625 586.757812 111.988281 582.839844 109.171875 578.855469 C 106.355469 574.875 103.628906 570.832031 100.984375 566.730469 C 98.34375 562.628906 95.792969 558.472656 93.335938 554.261719 C 90.875 550.050781 88.507812 545.789062 86.230469 541.472656 C 83.957031 537.15625 81.777344 532.796875 79.691406 528.386719 C 77.605469 523.976562 75.617188 519.523438 73.722656 515.027344 C 71.832031 510.53125 70.039062 505.996094 68.34375 501.421875 C 66.648438 496.847656 65.054688 492.242188 63.558594 487.597656 C 62.0625 482.953125 60.671875 478.28125 59.378906 473.578125 C 58.089844 468.875 56.898438 464.144531 55.8125 459.386719 C 54.726562 454.632812 53.746094 449.855469 52.867188 445.058594 C 51.988281 440.261719 51.214844 435.445312 50.546875 430.613281 C 49.878906 425.78125 49.3125 420.9375 48.855469 416.082031 C 48.394531 411.226562 48.042969 406.363281 47.796875 401.488281 C 47.796875 396.199219 47.796875 390.425781 47.796875 384.65625 C 47.875 379.320312 48.078125 373.992188 48.410156 368.671875 C 48.738281 363.347656 49.195312 358.035156 49.78125 352.730469 C 50.363281 347.429688 51.074219 342.144531 51.90625 336.878906 C 52.742188 331.609375 53.699219 326.363281 54.785156 321.140625 C 55.867188 315.917969 57.074219 310.726562 58.40625 305.5625 C 59.738281 300.394531 61.1875 295.265625 62.761719 290.167969 C 64.335938 285.074219 66.03125 280.015625 67.847656 275 C 69.660156 269.984375 71.59375 265.015625 73.644531 260.09375 C 75.695312 255.167969 77.863281 250.296875 80.144531 245.476562 C 82.425781 240.65625 84.824219 235.890625 87.332031 231.183594 C 89.839844 226.476562 92.460938 221.832031 95.191406 217.25 C 97.917969 212.667969 100.753906 208.152344 103.699219 203.707031 C 106.644531 199.257812 109.691406 194.882812 112.84375 190.582031 C 115.996094 186.277344 119.25 182.050781 122.601562 177.902344 C 125.953125 173.757812 129.402344 169.691406 132.949219 165.707031 C 136.496094 161.722656 140.132812 157.824219 143.867188 154.011719 C 147.597656 150.199219 151.417969 146.480469 155.324219 142.851562 C 159.234375 139.222656 163.226562 135.6875 167.300781 132.246094 C 171.378906 128.804688 175.53125 125.464844 179.769531 122.222656 C 184.003906 118.980469 188.3125 115.839844 192.695312 112.800781 C 197.082031 109.765625 201.535156 106.832031 206.058594 104.007812 C 210.582031 101.179688 215.167969 98.460938 219.820312 95.855469 C 224.472656 93.246094 229.1875 90.75 233.957031 88.367188 C 238.730469 85.980469 243.554688 83.710938 248.433594 81.558594 C 253.3125 79.402344 258.238281 77.367188 263.214844 75.445312 C 268.191406 73.523438 273.210938 71.722656 278.273438 70.039062 C 283.332031 68.359375 288.429688 66.796875 293.566406 65.359375 C 298.703125 63.917969 303.871094 62.601562 309.066406 61.40625 C 314.265625 60.210938 319.492188 59.140625 324.738281 58.195312 C 329.988281 57.25 335.257812 56.429688 340.546875 55.734375 C 345.832031 55.039062 351.136719 54.46875 356.449219 54.023438 C 361.765625 53.582031 367.089844 53.261719 372.417969 53.074219 C 377.75 52.882812 383.082031 52.816406 388.414062 52.878906 C 393.746094 52.941406 399.078125 53.132812 404.402344 53.449219 C 409.726562 53.765625 415.039062 54.207031 420.34375 54.773438 C 425.644531 55.34375 430.933594 56.039062 436.203125 56.855469 C 441.472656 57.675781 446.722656 58.621094 451.945312 59.691406 C 457.171875 60.757812 462.371094 61.953125 467.539062 63.269531 C 472.707031 64.585938 477.839844 66.023438 482.941406 67.582031 C 488.042969 69.140625 493.101562 70.824219 498.125 72.625 C 503.144531 74.425781 508.121094 76.34375 513.046875 78.378906 C 517.976562 80.417969 522.855469 82.570312 527.683594 84.839844 C 532.511719 87.105469 537.28125 89.488281 541.996094 91.984375 C 546.707031 94.480469 551.359375 97.085938 555.949219 99.804688 C 560.539062 102.519531 565.0625 105.34375 569.519531 108.277344 C 573.976562 111.207031 578.359375 114.242188 582.671875 117.382812 C 586.980469 120.523438 591.21875 123.761719 595.375 127.105469 C 599.53125 130.445312 603.609375 133.882812 607.601562 137.417969 C 611.597656 140.953125 615.503906 144.582031 619.324219 148.300781 C 623.148438 152.023438 626.878906 155.832031 630.519531 159.730469 C 634.160156 163.628906 637.707031 167.609375 641.15625 171.675781 C 644.609375 175.742188 647.960938 179.890625 651.214844 184.113281 C 654.472656 188.339844 657.625 192.640625 660.671875 197.015625 C 663.722656 201.390625 666.667969 205.835938 669.507812 210.351562 C 672.34375 214.867188 675.074219 219.449219 677.695312 224.09375 C 680.316406 228.738281 682.828125 233.445312 685.222656 238.207031 C 687.621094 242.972656 689.90625 247.792969 692.074219 252.664062 C 694.242188 257.539062 696.292969 262.460938 698.226562 267.429688 C 700.164062 272.402344 701.976562 277.414062 703.675781 282.472656 C 705.371094 287.527344 706.945312 292.621094 708.402344 297.753906 C 709.855469 302.886719 711.1875 308.050781 712.394531 313.242188 C 713.605469 318.4375 714.6875 323.660156 715.648438 328.90625 C 716.609375 334.152344 717.445312 339.417969 718.15625 344.703125 C 718.867188 349.992188 719.453125 355.292969 719.910156 360.605469 L 687.84375 360.605469 C 687.457031 355.761719 686.957031 350.929688 686.339844 346.113281 C 685.722656 341.292969 684.992188 336.492188 684.144531 331.707031 C 683.296875 326.921875 682.335938 322.160156 681.261719 317.421875 C 680.1875 312.683594 679 307.972656 677.699219 303.292969 C 676.402344 298.609375 674.988281 293.964844 673.46875 289.347656 C 671.945312 284.734375 670.3125 280.160156 668.570312 275.625 C 666.832031 271.089844 664.980469 266.597656 663.027344 262.148438 C 661.070312 257.703125 659.007812 253.304688 656.84375 248.957031 C 654.675781 244.605469 652.40625 240.3125 650.035156 236.070312 C 647.664062 231.832031 645.191406 227.652344 642.617188 223.527344 C 640.046875 219.40625 637.378906 215.347656 634.609375 211.355469 C 631.84375 207.359375 628.984375 203.433594 626.03125 199.578125 C 623.078125 195.71875 620.03125 191.933594 616.898438 188.222656 C 613.761719 184.511719 610.539062 180.875 607.230469 177.320312 C 603.921875 173.761719 600.527344 170.285156 597.054688 166.890625 C 593.578125 163.496094 590.023438 160.183594 586.390625 156.960938 C 582.757812 153.734375 579.046875 150.597656 575.261719 147.550781 C 571.480469 144.503906 567.625 141.546875 563.699219 138.683594 C 559.773438 135.820312 555.785156 133.050781 551.726562 130.378906 C 547.667969 127.707031 543.546875 125.132812 539.367188 122.660156 C 535.1875 120.183594 530.949219 117.808594 526.65625 115.539062 C 522.359375 113.265625 518.015625 111.097656 513.617188 109.03125 C 509.21875 106.96875 504.773438 105.007812 500.28125 103.15625 C 495.789062 101.304688 491.253906 99.5625 486.679688 97.929688 C 482.105469 96.292969 477.492188 94.769531 472.84375 93.355469 C 468.195312 91.941406 463.515625 90.636719 458.808594 89.445312 C 454.097656 88.257812 449.359375 87.179688 444.597656 86.214844 C 439.835938 85.253906 435.054688 84.402344 430.25 83.667969 C 425.449219 82.933594 420.628906 82.3125 415.796875 81.808594 C 410.964844 81.304688 406.125 80.917969 401.273438 80.644531 C 396.421875 80.371094 391.566406 80.214844 386.710938 80.175781 C 381.851562 80.132812 376.996094 80.210938 372.140625 80.402344 C 367.285156 80.59375 362.4375 80.902344 357.597656 81.324219 C 352.757812 81.75 347.929688 82.289062 343.117188 82.941406 C 338.300781 83.597656 333.503906 84.367188 328.726562 85.25 C 323.949219 86.136719 319.195312 87.132812 314.46875 88.246094 C 309.738281 89.359375 305.039062 90.582031 300.367188 91.917969 C 295.695312 93.253906 291.058594 94.703125 286.457031 96.261719 C 281.855469 97.820312 277.292969 99.488281 272.769531 101.265625 C 268.25 103.039062 263.773438 104.925781 259.339844 106.914062 C 254.90625 108.90625 250.527344 111.003906 246.195312 113.203125 C 241.863281 115.402344 237.585938 117.707031 233.363281 120.113281 C 229.144531 122.515625 224.980469 125.023438 220.878906 127.625 C 216.777344 130.230469 212.742188 132.933594 208.769531 135.730469 C 204.796875 138.527344 200.894531 141.417969 197.058594 144.402344 C 193.226562 147.386719 189.464844 150.460938 185.777344 153.625 C 182.089844 156.789062 178.480469 160.039062 174.949219 163.375 C 171.417969 166.714844 167.96875 170.132812 164.601562 173.636719 C 161.234375 177.136719 157.953125 180.71875 154.753906 184.375 C 151.558594 188.035156 148.453125 191.769531 145.433594 195.578125 C 142.414062 199.382812 139.492188 203.261719 136.660156 207.210938 C 133.824219 211.15625 131.089844 215.171875 128.449219 219.25 C 125.808594 223.328125 123.269531 227.46875 120.824219 231.667969 C 118.382812 235.867188 116.042969 240.125 113.804688 244.4375 C 111.566406 248.746094 109.429688 253.109375 107.402344 257.523438 C 105.371094 261.941406 103.449219 266.398438 101.632812 270.90625 C 99.816406 275.414062 98.109375 279.960938 96.507812 284.546875 C 94.910156 289.136719 93.421875 293.757812 92.042969 298.417969 C 90.667969 303.078125 89.402344 307.765625 88.25 312.488281 C 87.09375 317.207031 86.054688 321.949219 85.128906 326.71875 C 84.203125 331.488281 83.390625 336.277344 82.695312 341.085938 C 81.996094 345.894531 81.414062 350.71875 80.949219 355.554688 C 80.484375 360.390625 80.132812 365.234375 79.898438 370.085938 C 79.664062 374.941406 79.542969 379.796875 79.542969 384.65625 C 79.542969 389.785156 79.542969 394.917969 79.542969 399.726562 C 79.757812 404.097656 80.066406 408.460938 80.472656 412.820312 C 80.875 417.179688 81.375 421.523438 81.964844 425.863281 C 82.558594 430.199219 83.242188 434.519531 84.019531 438.828125 C 84.796875 443.132812 85.667969 447.421875 86.628906 451.691406 C 87.59375 455.960938 88.648438 460.207031 89.792969 464.429688 C 90.9375 468.65625 92.171875 472.851562 93.5 477.023438 C 94.828125 481.195312 96.242188 485.335938 97.746094 489.445312 C 99.253906 493.554688 100.84375 497.628906 102.527344 501.671875 C 104.207031 505.710938 105.972656 509.714844 107.828125 513.679688 C 109.679688 517.644531 111.617188 521.566406 113.640625 525.449219 C 115.660156 529.332031 117.765625 533.167969 119.953125 536.957031 C 122.140625 540.746094 124.410156 544.488281 126.757812 548.183594 C 129.109375 551.875 131.535156 555.515625 134.039062 559.105469 C 136.546875 562.691406 139.128906 566.226562 141.785156 569.703125 C 144.445312 573.179688 147.175781 576.597656 149.980469 579.957031 C 152.785156 583.316406 155.664062 586.613281 158.609375 589.847656 C 161.558594 593.085938 164.574219 596.253906 167.65625 599.359375 C 170.742188 602.464844 173.890625 605.503906 177.105469 608.472656 C 180.320312 611.441406 183.597656 614.339844 186.9375 617.167969 C 190.277344 619.996094 193.679688 622.753906 197.136719 625.433594 C 200.59375 628.117188 204.109375 630.722656 207.679688 633.253906 C 211.253906 635.78125 214.875 638.234375 218.554688 640.609375 C 222.230469 642.984375 225.957031 645.277344 229.730469 647.492188 C 233.507812 649.703125 237.328125 651.835938 241.195312 653.882812 C 245.0625 655.933594 248.972656 657.898438 252.925781 659.777344 C 256.878906 661.65625 260.867188 663.453125 264.898438 665.160156 C 268.925781 666.867188 272.992188 668.488281 277.089844 670.023438 C 281.191406 671.554688 285.320312 673 289.480469 674.355469 C 293.644531 675.710938 297.832031 676.976562 302.046875 678.148438 C 306.265625 679.324219 310.503906 680.40625 314.765625 681.398438 C 319.027344 682.390625 323.3125 683.289062 327.613281 684.097656 C 331.914062 684.90625 336.230469 685.621094 340.5625 686.242188 Z M 340.5625 555.570312 L 340.5625 588.597656 C 337.460938 587.933594 334.371094 587.199219 331.300781 586.394531 C 328.230469 585.589844 325.179688 584.714844 322.148438 583.773438 C 319.117188 582.828125 316.109375 581.816406 313.125 580.734375 C 310.140625 579.652344 307.183594 578.503906 304.25 577.285156 C 301.316406 576.070312 298.414062 574.785156 295.542969 573.4375 C 292.667969 572.089844 289.828125 570.675781 287.019531 569.195312 C 284.210938 567.714844 281.4375 566.171875 278.699219 564.566406 C 275.960938 562.960938 273.257812 561.292969 270.597656 559.566406 C 267.933594 557.835938 265.3125 556.046875 262.734375 554.195312 C 260.152344 552.347656 257.617188 550.441406 255.121094 548.476562 C 252.628906 546.511719 250.183594 544.492188 247.78125 542.414062 C 245.378906 540.335938 243.027344 538.207031 240.722656 536.023438 C 238.421875 533.839844 236.167969 531.601562 233.964844 529.316406 C 231.765625 527.027344 229.617188 524.691406 227.523438 522.308594 C 225.425781 519.921875 223.386719 517.488281 221.40625 515.011719 C 219.421875 512.53125 217.496094 510.011719 215.628906 507.445312 C 213.757812 504.878906 211.949219 502.269531 210.199219 499.621094 C 208.453125 496.972656 206.765625 494.285156 205.136719 491.558594 C 203.511719 488.832031 201.949219 486.070312 200.449219 483.269531 C 198.949219 480.472656 197.511719 477.644531 196.140625 474.78125 C 194.769531 471.917969 193.464844 469.023438 192.226562 466.101562 C 190.988281 463.179688 189.816406 460.226562 188.710938 457.253906 C 187.609375 454.277344 186.574219 451.277344 185.605469 448.25 C 184.640625 445.226562 183.742188 442.183594 182.914062 439.121094 C 182.085938 436.054688 181.328125 432.972656 180.644531 429.875 C 179.957031 426.773438 179.339844 423.660156 178.796875 420.535156 C 178.25 417.40625 177.777344 414.269531 177.375 411.117188 C 176.976562 407.96875 176.644531 404.8125 176.390625 401.648438 C 176.132812 398.484375 175.945312 395.316406 175.835938 392.144531 C 175.722656 388.972656 175.683594 385.796875 175.714844 382.625 C 175.75 379.449219 175.851562 376.277344 176.03125 373.109375 C 176.207031 369.9375 176.457031 366.773438 176.78125 363.617188 C 177.101562 360.457031 177.496094 357.308594 177.964844 354.167969 C 178.429688 351.027344 178.96875 347.902344 179.574219 344.785156 C 180.183594 341.671875 180.863281 338.570312 181.617188 335.484375 C 182.367188 332.402344 183.1875 329.335938 184.078125 326.289062 C 184.96875 323.242188 185.929688 320.214844 186.957031 317.214844 C 187.984375 314.210938 189.082031 311.230469 190.246094 308.28125 C 191.414062 305.328125 192.644531 302.402344 193.941406 299.503906 C 195.242188 296.609375 196.605469 293.742188 198.035156 290.90625 C 199.464844 288.074219 200.957031 285.273438 202.515625 282.507812 C 204.074219 279.742188 205.695312 277.011719 207.375 274.320312 C 209.058594 271.628906 210.800781 268.976562 212.605469 266.363281 C 214.40625 263.75 216.269531 261.179688 218.191406 258.652344 C 220.109375 256.125 222.089844 253.644531 224.121094 251.207031 C 226.15625 248.769531 228.246094 246.378906 230.390625 244.039062 C 232.53125 241.695312 234.730469 239.40625 236.976562 237.164062 C 239.226562 234.921875 241.523438 232.734375 243.871094 230.597656 C 246.21875 228.460938 248.613281 226.378906 251.058594 224.351562 C 253.5 222.324219 255.988281 220.355469 258.523438 218.441406 C 261.054688 216.53125 263.632812 214.675781 266.25 212.878906 C 268.867188 211.085938 271.523438 209.351562 274.222656 207.675781 C 276.917969 206 279.652344 204.390625 282.425781 202.839844 C 285.195312 201.292969 288 199.808594 290.839844 198.386719 C 293.675781 196.964844 296.546875 195.609375 299.449219 194.320312 C 302.347656 193.03125 305.277344 191.808594 308.234375 190.652344 C 311.191406 189.496094 314.171875 188.40625 317.179688 187.386719 C 320.183594 186.367188 323.210938 185.417969 326.261719 184.535156 C 329.3125 183.652344 332.378906 182.84375 335.464844 182.101562 C 338.554688 181.359375 341.65625 180.6875 344.773438 180.089844 C 347.890625 179.492188 351.019531 178.960938 354.160156 178.503906 C 357.300781 178.050781 360.453125 177.664062 363.613281 177.351562 C 366.769531 177.039062 369.933594 176.800781 373.105469 176.632812 C 376.277344 176.464844 379.449219 176.367188 382.621094 176.34375 C 385.796875 176.320312 388.96875 176.371094 392.140625 176.492188 C 395.3125 176.613281 398.480469 176.808594 401.644531 177.074219 C 404.808594 177.34375 407.964844 177.679688 411.113281 178.09375 C 414.257812 178.503906 417.394531 178.984375 420.523438 179.539062 C 423.648438 180.09375 426.757812 180.71875 429.855469 181.414062 C 432.953125 182.113281 436.035156 182.878906 439.09375 183.714844 C 442.15625 184.550781 445.199219 185.457031 448.21875 186.433594 C 451.242188 187.410156 454.238281 188.457031 457.210938 189.566406 C 460.183594 190.679688 463.128906 191.859375 466.046875 193.109375 C 468.96875 194.355469 471.855469 195.671875 474.714844 197.050781 C 477.574219 198.429688 480.402344 199.875 483.195312 201.382812 C 485.988281 202.890625 488.746094 204.460938 491.464844 206.097656 C 494.1875 207.730469 496.871094 209.425781 499.511719 211.183594 C 502.15625 212.941406 504.757812 214.757812 507.320312 216.632812 C 509.878906 218.511719 512.398438 220.445312 514.871094 222.433594 C 517.34375 224.425781 519.769531 226.472656 522.148438 228.574219 C 524.527344 230.675781 526.855469 232.832031 529.136719 235.039062 C 531.417969 237.25 533.644531 239.507812 535.824219 241.820312 C 538 244.128906 540.121094 246.488281 542.191406 248.894531 C 544.261719 251.300781 546.273438 253.753906 548.234375 256.253906 C 550.191406 258.753906 552.089844 261.296875 553.929688 263.882812 C 555.773438 266.46875 557.554688 269.09375 559.273438 271.761719 C 560.996094 274.429688 562.65625 277.136719 564.253906 279.878906 C 565.851562 282.621094 567.382812 285.398438 568.855469 288.214844 C 570.324219 291.027344 571.730469 293.871094 573.070312 296.75 C 574.410156 299.628906 575.6875 302.535156 576.894531 305.46875 C 578.101562 308.40625 579.242188 311.367188 580.3125 314.355469 C 581.386719 317.34375 582.390625 320.351562 583.324219 323.386719 C 584.261719 326.421875 585.125 329.472656 585.921875 332.546875 C 586.714844 335.621094 587.441406 338.710938 588.09375 341.816406 C 588.75 344.921875 589.332031 348.042969 589.84375 351.175781 C 590.355469 354.308594 590.796875 357.453125 591.164062 360.605469 L 559.097656 360.605469 C 558.734375 357.980469 558.3125 355.367188 557.832031 352.761719 C 557.351562 350.160156 556.816406 347.566406 556.21875 344.984375 C 555.621094 342.40625 554.964844 339.839844 554.253906 337.289062 C 553.542969 334.738281 552.769531 332.207031 551.945312 329.6875 C 551.117188 327.171875 550.234375 324.675781 549.296875 322.199219 C 548.355469 319.722656 547.363281 317.269531 546.3125 314.839844 C 545.265625 312.40625 544.160156 310 543.003906 307.617188 C 541.84375 305.238281 540.632812 302.882812 539.367188 300.554688 C 538.105469 298.226562 536.789062 295.929688 535.421875 293.664062 C 534.054688 291.394531 532.636719 289.160156 531.167969 286.953125 C 529.699219 284.75 528.183594 282.582031 526.617188 280.445312 C 525.050781 278.308594 523.4375 276.210938 521.777344 274.148438 C 520.113281 272.082031 518.410156 270.058594 516.65625 268.074219 C 514.90625 266.085938 513.109375 264.140625 511.269531 262.234375 C 509.429688 260.332031 507.550781 258.46875 505.625 256.648438 C 503.703125 254.828125 501.738281 253.050781 499.734375 251.316406 C 497.730469 249.585938 495.691406 247.898438 493.609375 246.257812 C 491.53125 244.621094 489.417969 243.027344 487.265625 241.480469 C 485.113281 239.9375 482.929688 238.441406 480.710938 236.996094 C 478.492188 235.550781 476.242188 234.152344 473.960938 232.808594 C 471.679688 231.464844 469.367188 230.171875 467.027344 228.929688 C 464.6875 227.6875 462.324219 226.5 459.929688 225.367188 C 457.535156 224.230469 455.117188 223.152344 452.675781 222.125 C 450.234375 221.101562 447.773438 220.132812 445.285156 219.21875 C 442.800781 218.300781 440.296875 217.445312 437.773438 216.644531 C 435.246094 215.839844 432.707031 215.097656 430.148438 214.410156 C 427.589844 213.722656 425.019531 213.09375 422.433594 212.523438 C 419.847656 211.949219 417.25 211.4375 414.640625 210.984375 C 412.03125 210.53125 409.414062 210.132812 406.785156 209.796875 C 404.160156 209.460938 401.527344 209.183594 398.886719 208.96875 C 396.246094 208.75 393.605469 208.589844 390.957031 208.492188 C 388.3125 208.394531 385.664062 208.355469 383.015625 208.375 C 380.367188 208.394531 377.71875 208.476562 375.074219 208.617188 C 372.429688 208.757812 369.789062 208.957031 367.15625 209.214844 C 364.519531 209.472656 361.890625 209.789062 359.269531 210.167969 C 356.648438 210.546875 354.035156 210.980469 351.433594 211.476562 C 348.832031 211.972656 346.242188 212.523438 343.667969 213.136719 C 341.089844 213.746094 338.527344 214.417969 335.980469 215.144531 C 333.433594 215.871094 330.90625 216.652344 328.394531 217.496094 C 325.882812 218.335938 323.390625 219.234375 320.921875 220.1875 C 318.449219 221.140625 316.003906 222.148438 313.578125 223.210938 C 311.152344 224.273438 308.75 225.390625 306.375 226.5625 C 304 227.734375 301.652344 228.957031 299.332031 230.234375 C 297.011719 231.511719 294.722656 232.84375 292.460938 234.222656 C 290.203125 235.601562 287.972656 237.035156 285.777344 238.515625 C 283.582031 239.996094 281.421875 241.523438 279.292969 243.101562 C 277.167969 244.679688 275.078125 246.304688 273.023438 247.980469 C 270.96875 249.652344 268.957031 251.367188 266.980469 253.132812 C 265.003906 254.894531 263.066406 256.703125 261.171875 258.550781 C 259.277344 260.402344 257.425781 262.292969 255.617188 264.226562 C 253.804688 266.160156 252.042969 268.136719 250.320312 270.148438 C 248.601562 272.160156 246.925781 274.210938 245.296875 276.300781 C 243.667969 278.390625 242.089844 280.515625 240.554688 282.675781 C 239.023438 284.832031 237.539062 287.027344 236.105469 289.253906 C 234.671875 291.480469 233.289062 293.738281 231.957031 296.027344 C 230.625 298.316406 229.34375 300.632812 228.117188 302.980469 C 226.890625 305.328125 225.714844 307.699219 224.59375 310.101562 C 223.472656 312.5 222.40625 314.921875 221.394531 317.371094 C 220.382812 319.820312 219.429688 322.289062 218.527344 324.777344 C 217.628906 327.269531 216.785156 329.777344 215.996094 332.308594 C 215.210938 334.835938 214.480469 337.382812 213.808594 339.941406 C 213.132812 342.503906 212.519531 345.078125 211.964844 347.667969 C 211.40625 350.257812 210.910156 352.859375 210.46875 355.46875 C 210.03125 358.082031 209.648438 360.703125 209.328125 363.332031 C 209.007812 365.960938 208.742188 368.59375 208.542969 371.234375 C 208.339844 373.875 208.195312 376.519531 208.113281 379.167969 C 208.027344 381.8125 208.003906 384.460938 208.039062 387.109375 C 208.074219 389.757812 208.171875 392.402344 208.324219 395.046875 C 208.480469 397.691406 208.695312 400.332031 208.96875 402.964844 C 209.242188 405.597656 209.574219 408.226562 209.96875 410.84375 C 210.359375 413.464844 210.808594 416.074219 211.320312 418.671875 C 211.828125 421.269531 212.398438 423.855469 213.023438 426.429688 C 213.648438 429.003906 214.332031 431.5625 215.074219 434.105469 C 215.816406 436.644531 216.613281 439.171875 217.46875 441.675781 C 218.324219 444.183594 219.234375 446.671875 220.203125 449.136719 C 221.167969 451.601562 222.191406 454.042969 223.269531 456.464844 C 224.34375 458.882812 225.476562 461.277344 226.660156 463.644531 C 227.847656 466.011719 229.082031 468.355469 230.375 470.667969 C 231.664062 472.980469 233.007812 475.261719 234.398438 477.515625 C 235.792969 479.765625 237.234375 481.988281 238.730469 484.175781 C 240.222656 486.359375 241.765625 488.515625 243.355469 490.632812 C 244.945312 492.75 246.582031 494.832031 248.265625 496.875 C 249.949219 498.917969 251.679688 500.925781 253.453125 502.890625 C 255.226562 504.855469 257.042969 506.78125 258.90625 508.664062 C 260.765625 510.550781 262.667969 512.390625 264.613281 514.191406 C 266.558594 515.988281 268.539062 517.742188 270.5625 519.453125 C 272.585938 521.160156 274.648438 522.824219 276.746094 524.441406 C 278.84375 526.058594 280.976562 527.625 283.144531 529.144531 C 285.3125 530.667969 287.515625 532.136719 289.75 533.558594 C 291.984375 534.980469 294.25 536.347656 296.546875 537.667969 C 298.84375 538.988281 301.167969 540.253906 303.519531 541.46875 C 305.875 542.683594 308.253906 543.84375 310.660156 544.949219 C 313.066406 546.058594 315.496094 547.109375 317.949219 548.109375 C 320.402344 549.105469 322.878906 550.046875 325.371094 550.933594 C 327.867188 551.820312 330.382812 552.648438 332.914062 553.421875 C 335.449219 554.195312 338 554.910156 340.5625 555.570312 Z M 340.5625 555.570312 " fill-opacity="1" fill-rule="nonzero"/></g><g clip-path="url(#6a5449b54b)"><path fill="#6b9080" d="M 612.597656 491.566406 C 612.597656 492.96875 612.527344 494.363281 612.390625 495.757812 C 612.253906 497.152344 612.046875 498.535156 611.773438 499.90625 C 611.5 501.28125 611.160156 502.636719 610.753906 503.976562 C 610.347656 505.316406 609.878906 506.632812 609.34375 507.925781 C 608.804688 509.222656 608.207031 510.484375 607.546875 511.71875 C 606.886719 512.953125 606.167969 514.152344 605.390625 515.316406 C 604.613281 516.480469 603.78125 517.605469 602.894531 518.6875 C 602.003906 519.769531 601.066406 520.804688 600.074219 521.796875 C 599.085938 522.785156 598.050781 523.726562 596.964844 524.613281 C 595.882812 525.5 594.761719 526.335938 593.597656 527.113281 C 592.433594 527.890625 591.234375 528.609375 590 529.269531 C 588.765625 529.929688 587.5 530.527344 586.207031 531.0625 C 584.914062 531.597656 583.597656 532.070312 582.257812 532.476562 C 580.917969 532.882812 579.558594 533.222656 578.1875 533.496094 C 576.8125 533.769531 575.429688 533.972656 574.035156 534.113281 C 572.644531 534.25 571.246094 534.316406 569.847656 534.316406 C 568.445312 534.316406 567.050781 534.25 565.65625 534.113281 C 564.261719 533.972656 562.878906 533.769531 561.507812 533.496094 C 560.132812 533.222656 558.777344 532.882812 557.4375 532.476562 C 556.097656 532.070312 554.78125 531.597656 553.488281 531.0625 C 552.191406 530.527344 550.929688 529.929688 549.695312 529.269531 C 548.460938 528.609375 547.261719 527.890625 546.097656 527.113281 C 544.933594 526.335938 543.808594 525.5 542.726562 524.613281 C 541.644531 523.726562 540.609375 522.785156 539.617188 521.796875 C 538.628906 520.804688 537.6875 519.769531 536.800781 518.6875 C 535.910156 517.605469 535.078125 516.480469 534.300781 515.316406 C 533.523438 514.152344 532.804688 512.953125 532.144531 511.71875 C 531.484375 510.484375 530.886719 509.222656 530.351562 507.925781 C 529.816406 506.632812 529.34375 505.316406 528.9375 503.976562 C 528.53125 502.636719 528.191406 501.28125 527.917969 499.90625 C 527.644531 498.535156 527.441406 497.152344 527.300781 495.757812 C 527.164062 494.363281 527.097656 492.96875 527.097656 491.566406 C 527.097656 490.167969 527.164062 488.769531 527.300781 487.378906 C 527.441406 485.984375 527.644531 484.601562 527.917969 483.226562 C 528.191406 481.855469 528.53125 480.496094 528.9375 479.15625 C 529.34375 477.816406 529.816406 476.5 530.351562 475.207031 C 530.886719 473.914062 531.484375 472.648438 532.144531 471.414062 C 532.804688 470.179688 533.523438 468.980469 534.300781 467.816406 C 535.078125 466.652344 535.910156 465.53125 536.800781 464.445312 C 537.6875 463.363281 538.628906 462.328125 539.617188 461.339844 C 540.609375 460.347656 541.644531 459.410156 542.726562 458.519531 C 543.808594 457.632812 544.933594 456.800781 546.097656 456.023438 C 547.261719 455.246094 548.460938 454.527344 549.695312 453.867188 C 550.929688 453.207031 552.191406 452.609375 553.488281 452.070312 C 554.78125 451.535156 556.097656 451.066406 557.4375 450.660156 C 558.777344 450.25 560.132812 449.914062 561.507812 449.640625 C 562.878906 449.367188 564.261719 449.160156 565.65625 449.023438 C 567.050781 448.886719 568.445312 448.816406 569.847656 448.816406 C 571.246094 448.816406 572.644531 448.886719 574.035156 449.023438 C 575.429688 449.160156 576.8125 449.367188 578.1875 449.640625 C 579.558594 449.914062 580.917969 450.25 582.257812 450.660156 C 583.597656 451.066406 584.914062 451.535156 586.207031 452.070312 C 587.5 452.609375 588.765625 453.207031 590 453.867188 C 591.234375 454.527344 592.433594 455.246094 593.597656 456.023438 C 594.761719 456.800781 595.882812 457.632812 596.964844 458.519531 C 598.050781 459.410156 599.085938 460.347656 600.074219 461.339844 C 601.066406 462.328125 602.003906 463.363281 602.894531 464.445312 C 603.78125 465.53125 604.613281 466.652344 605.390625 467.816406 C 606.167969 468.980469 606.886719 470.179688 607.546875 471.414062 C 608.207031 472.648438 608.804688 473.914062 609.34375 475.207031 C 609.878906 476.5 610.347656 477.816406 610.753906 479.15625 C 611.160156 480.496094 611.5 481.855469 611.773438 483.226562 C 612.046875 484.601562 612.253906 485.984375 612.390625 487.378906 C 612.527344 488.769531 612.597656 490.167969 612.597656 491.566406 Z M 612.597656 491.566406 " fill-opacity="1" fill-rule="nonzero"/></g></svg>