<svg xmlns="http://www.w3.org/2000/svg" xmlns:xlink="http://www.w3.org/1999/xlink" width="1024" zoomAndPan="magnify" viewBox="0 0 768 767.999994" height="1024" preserveAspectRatio="xMidYMid meet" version="1.0"><defs><clipPath id="a0531ec4e2"><path d="M 231 190.507812 L 356 190.507812 L 356 593 L 231 593 Z M 231 190.507812 " clip-rule="nonzero"/></clipPath><clipPath id="bbcbc902cb"><path d="M 413 190.507812 L 536.992188 190.507812 L 536.992188 593 L 413 593 Z M 413 190.507812 " clip-rule="nonzero"/></clipPath></defs><g clip-path="url(#a0531ec4e2)"><path fill="#000000" d="M 268.851562 190.09375 L 317.597656 190.09375 C 318.824219 190.09375 320.046875 190.15625 321.265625 190.273438 C 322.484375 190.394531 323.695312 190.574219 324.898438 190.8125 C 326.097656 191.054688 327.285156 191.351562 328.460938 191.707031 C 329.632812 192.0625 330.785156 192.476562 331.917969 192.945312 C 333.046875 193.414062 334.15625 193.9375 335.234375 194.515625 C 336.316406 195.09375 337.367188 195.722656 338.386719 196.402344 C 339.40625 197.082031 340.386719 197.8125 341.335938 198.589844 C 342.28125 199.367188 343.1875 200.191406 344.054688 201.058594 C 344.921875 201.925781 345.742188 202.832031 346.519531 203.777344 C 347.300781 204.726562 348.027344 205.710938 348.707031 206.730469 C 349.390625 207.75 350.019531 208.796875 350.597656 209.878906 C 351.175781 210.960938 351.699219 212.066406 352.167969 213.199219 C 352.636719 214.332031 353.046875 215.484375 353.402344 216.660156 C 353.757812 217.832031 354.058594 219.019531 354.296875 220.222656 C 354.535156 221.425781 354.714844 222.636719 354.835938 223.855469 C 354.953125 225.074219 355.015625 226.296875 355.015625 227.523438 L 355.015625 555.355469 C 355.015625 556.582031 354.953125 557.804688 354.835938 559.023438 C 354.714844 560.242188 354.535156 561.453125 354.296875 562.65625 C 354.058594 563.859375 353.757812 565.046875 353.402344 566.21875 C 353.046875 567.394531 352.636719 568.546875 352.167969 569.679688 C 351.699219 570.8125 351.175781 571.917969 350.597656 573 C 350.019531 574.078125 349.390625 575.128906 348.707031 576.148438 C 348.027344 577.167969 347.300781 578.152344 346.519531 579.097656 C 345.742188 580.046875 344.921875 580.953125 344.054688 581.820312 C 343.1875 582.6875 342.28125 583.511719 341.335938 584.289062 C 340.386719 585.066406 339.40625 585.792969 338.386719 586.476562 C 337.367188 587.15625 336.316406 587.785156 335.234375 588.363281 C 334.15625 588.941406 333.046875 589.464844 331.917969 589.933594 C 330.785156 590.402344 329.632812 590.816406 328.460938 591.171875 C 327.285156 591.527344 326.097656 591.824219 324.898438 592.0625 C 323.695312 592.304688 322.484375 592.484375 321.265625 592.601562 C 320.046875 592.722656 318.824219 592.785156 317.597656 592.785156 L 268.851562 592.785156 C 267.625 592.785156 266.402344 592.722656 265.183594 592.601562 C 263.964844 592.484375 262.753906 592.304688 261.550781 592.0625 C 260.347656 591.824219 259.160156 591.527344 257.988281 591.171875 C 256.816406 590.816406 255.664062 590.402344 254.53125 589.933594 C 253.398438 589.464844 252.292969 588.941406 251.210938 588.363281 C 250.132812 587.785156 249.082031 587.15625 248.0625 586.476562 C 247.042969 585.792969 246.058594 585.066406 245.113281 584.289062 C 244.164062 583.511719 243.257812 582.6875 242.390625 581.820312 C 241.527344 580.953125 240.703125 580.046875 239.925781 579.097656 C 239.148438 578.152344 238.417969 577.167969 237.738281 576.148438 C 237.058594 575.128906 236.429688 574.078125 235.851562 573 C 235.273438 571.917969 234.75 570.8125 234.28125 569.679688 C 233.8125 568.546875 233.398438 567.394531 233.042969 566.21875 C 232.6875 565.046875 232.390625 563.859375 232.152344 562.65625 C 231.914062 561.453125 231.734375 560.242188 231.613281 559.023438 C 231.492188 557.804688 231.433594 556.582031 231.433594 555.355469 L 231.433594 227.523438 C 231.433594 226.296875 231.492188 225.074219 231.613281 223.855469 C 231.734375 222.636719 231.914062 221.425781 232.152344 220.222656 C 232.390625 219.019531 232.6875 217.832031 233.042969 216.660156 C 233.398438 215.484375 233.8125 214.332031 234.28125 213.199219 C 234.75 212.066406 235.273438 210.960938 235.851562 209.878906 C 236.429688 208.796875 237.058594 207.75 237.738281 206.730469 C 238.417969 205.710938 239.148438 204.726562 239.925781 203.777344 C 240.703125 202.832031 241.527344 201.925781 242.390625 201.058594 C 243.257812 200.191406 244.164062 199.367188 245.113281 198.589844 C 246.058594 197.8125 247.042969 197.082031 248.0625 196.402344 C 249.082031 195.722656 250.132812 195.09375 251.210938 194.515625 C 252.292969 193.9375 253.398438 193.414062 254.53125 192.945312 C 255.664062 192.476562 256.816406 192.0625 257.988281 191.707031 C 259.160156 191.351562 260.347656 191.054688 261.550781 190.8125 C 262.753906 190.574219 263.964844 190.394531 265.183594 190.273438 C 266.402344 190.15625 267.625 190.09375 268.851562 190.09375 Z M 268.851562 190.09375 " fill-opacity="1" fill-rule="nonzero"/></g><g clip-path="url(#bbcbc902cb)"><path fill="#000000" d="M 451.265625 190.09375 L 500.015625 190.09375 C 501.238281 190.09375 502.460938 190.15625 503.679688 190.273438 C 504.902344 190.394531 506.113281 190.574219 507.3125 190.8125 C 508.515625 191.054688 509.703125 191.351562 510.875 191.707031 C 512.046875 192.0625 513.199219 192.476562 514.332031 192.945312 C 515.464844 193.414062 516.570312 193.9375 517.652344 194.515625 C 518.734375 195.09375 519.78125 195.722656 520.800781 196.402344 C 521.820312 197.082031 522.804688 197.8125 523.75 198.589844 C 524.699219 199.367188 525.605469 200.191406 526.472656 201.058594 C 527.339844 201.925781 528.160156 202.832031 528.9375 203.777344 C 529.714844 204.726562 530.445312 205.710938 531.125 206.730469 C 531.804688 207.75 532.433594 208.796875 533.011719 209.878906 C 533.589844 210.960938 534.113281 212.066406 534.582031 213.199219 C 535.050781 214.332031 535.464844 215.484375 535.820312 216.660156 C 536.175781 217.832031 536.472656 219.019531 536.710938 220.222656 C 536.953125 221.425781 537.132812 222.636719 537.25 223.855469 C 537.371094 225.074219 537.429688 226.296875 537.429688 227.523438 L 537.429688 555.355469 C 537.429688 556.582031 537.371094 557.804688 537.25 559.023438 C 537.132812 560.242188 536.953125 561.453125 536.710938 562.65625 C 536.472656 563.859375 536.175781 565.046875 535.820312 566.21875 C 535.464844 567.394531 535.050781 568.546875 534.582031 569.679688 C 534.113281 570.8125 533.589844 571.917969 533.011719 573 C 532.433594 574.078125 531.804688 575.128906 531.125 576.148438 C 530.445312 577.167969 529.714844 578.152344 528.9375 579.097656 C 528.160156 580.046875 527.339844 580.953125 526.472656 581.820312 C 525.605469 582.6875 524.699219 583.511719 523.75 584.289062 C 522.804688 585.066406 521.820312 585.792969 520.800781 586.476562 C 519.78125 587.15625 518.734375 587.785156 517.652344 588.363281 C 516.570312 588.941406 515.464844 589.464844 514.332031 589.933594 C 513.199219 590.402344 512.046875 590.816406 510.875 591.171875 C 509.703125 591.527344 508.515625 591.824219 507.3125 592.0625 C 506.113281 592.304688 504.902344 592.484375 503.679688 592.601562 C 502.460938 592.722656 501.238281 592.785156 500.015625 592.785156 L 451.265625 592.785156 C 450.042969 592.785156 448.820312 592.722656 447.597656 592.601562 C 446.378906 592.484375 445.167969 592.304688 443.96875 592.0625 C 442.765625 591.824219 441.578125 591.527344 440.40625 591.171875 C 439.234375 590.816406 438.082031 590.402344 436.949219 589.933594 C 435.816406 589.464844 434.710938 588.941406 433.628906 588.363281 C 432.546875 587.785156 431.496094 587.15625 430.480469 586.476562 C 429.460938 585.792969 428.476562 585.066406 427.53125 584.289062 C 426.582031 583.511719 425.675781 582.6875 424.808594 581.820312 C 423.941406 580.953125 423.121094 580.046875 422.34375 579.097656 C 421.566406 578.152344 420.835938 577.167969 420.15625 576.148438 C 419.476562 575.128906 418.84375 574.078125 418.269531 573 C 417.691406 571.917969 417.167969 570.8125 416.699219 569.679688 C 416.230469 568.546875 415.816406 567.394531 415.460938 566.21875 C 415.105469 565.046875 414.808594 563.859375 414.570312 562.65625 C 414.328125 561.453125 414.148438 560.242188 414.03125 559.023438 C 413.910156 557.804688 413.851562 556.582031 413.851562 555.355469 L 413.851562 227.523438 C 413.851562 226.296875 413.910156 225.074219 414.03125 223.855469 C 414.148438 222.636719 414.328125 221.425781 414.570312 220.222656 C 414.808594 219.019531 415.105469 217.832031 415.460938 216.660156 C 415.816406 215.484375 416.230469 214.332031 416.699219 213.199219 C 417.167969 212.066406 417.691406 210.960938 418.269531 209.878906 C 418.84375 208.796875 419.476562 207.75 420.15625 206.730469 C 420.835938 205.710938 421.566406 204.726562 422.34375 203.777344 C 423.121094 202.832031 423.941406 201.925781 424.808594 201.058594 C 425.675781 200.191406 426.582031 199.367188 427.53125 198.589844 C 428.476562 197.8125 429.460938 197.082031 430.480469 196.402344 C 431.496094 195.722656 432.546875 195.09375 433.628906 194.515625 C 434.710938 193.9375 435.816406 193.414062 436.949219 192.945312 C 438.082031 192.476562 439.234375 192.0625 440.40625 191.707031 C 441.578125 191.351562 442.765625 191.054688 443.96875 190.8125 C 445.167969 190.574219 446.378906 190.394531 447.597656 190.273438 C 448.820312 190.15625 450.042969 190.09375 451.265625 190.09375 Z M 451.265625 190.09375 " fill-opacity="1" fill-rule="nonzero"/></g></svg>