<svg xmlns="http://www.w3.org/2000/svg" xmlns:xlink="http://www.w3.org/1999/xlink" width="45" zoomAndPan="magnify" viewBox="0 0 768 767.999994" height="45" preserveAspectRatio="xMidYMid meet" version="1.0"><defs><clipPath id="6168bee8e9"><path d="M 55.746094 55.746094 L 711.996094 55.746094 L 711.996094 711.996094 L 55.746094 711.996094 Z M 55.746094 55.746094 " clip-rule="nonzero"/></clipPath><clipPath id="cbf53fe074"><path d="M 351.378906 351.378906 L 416.628906 351.378906 L 416.628906 416.628906 L 351.378906 416.628906 Z M 351.378906 351.378906 " clip-rule="nonzero"/></clipPath></defs><path fill="#000000" d="M 608.464844 409.394531 C 596.6875 513.691406 513.691406 596.6875 409.394531 608.464844 L 409.394531 630.507812 C 525.777344 618.554688 618.558594 525.777344 630.507812 409.394531 Z M 608.464844 409.394531 " fill-opacity="1" fill-rule="nonzero"/><path fill="#000000" d="M 409.394531 159.28125 C 513.691406 171.058594 596.6875 254.054688 608.464844 358.351562 L 630.507812 358.351562 C 618.554688 241.96875 525.777344 149.191406 409.394531 137.238281 Z M 409.394531 159.28125 " fill-opacity="1" fill-rule="nonzero"/><path fill="#000000" d="M 159.28125 358.351562 C 171.058594 254.054688 254.054688 171.058594 358.351562 159.28125 L 358.351562 137.238281 C 241.96875 149.191406 149.191406 241.96875 137.238281 358.351562 Z M 159.28125 358.351562 " fill-opacity="1" fill-rule="nonzero"/><path fill="#000000" d="M 358.351562 608.464844 C 254.054688 596.6875 171.058594 513.691406 159.28125 409.394531 L 137.238281 409.394531 C 149.191406 525.777344 241.96875 618.558594 358.351562 630.507812 Z M 358.351562 608.464844 " fill-opacity="1" fill-rule="nonzero"/><g clip-path="url(#6168bee8e9)"><path fill="#000000" d="M 701.058594 372.933594 L 536.445312 372.933594 C 531.054688 297.234375 470.511719 236.691406 394.808594 231.300781 L 394.808594 66.683594 C 394.808594 60.644531 389.914062 55.746094 383.871094 55.746094 C 377.832031 55.746094 372.933594 60.644531 372.933594 66.683594 L 372.933594 231.300781 C 297.234375 236.691406 236.691406 297.234375 231.300781 372.933594 L 66.683594 372.933594 C 60.644531 372.933594 55.746094 377.832031 55.746094 383.871094 C 55.746094 389.914062 60.644531 394.808594 66.683594 394.808594 L 231.300781 394.808594 C 236.691406 470.511719 297.234375 531.054688 372.933594 536.445312 L 372.933594 701.058594 C 372.933594 707.101562 377.832031 711.996094 383.871094 711.996094 C 389.914062 711.996094 394.808594 707.101562 394.808594 701.058594 L 394.808594 536.445312 C 470.511719 531.054688 531.054688 470.511719 536.445312 394.808594 L 701.058594 394.808594 C 707.101562 394.808594 711.996094 389.914062 711.996094 383.871094 C 711.996094 377.832031 707.101562 372.933594 701.058594 372.933594 Z M 514.570312 372.933594 L 437.460938 372.933594 C 433.113281 351.507812 416.238281 334.632812 394.808594 330.285156 L 394.808594 253.175781 C 458.457031 258.464844 509.28125 309.289062 514.570312 372.933594 Z M 372.933594 253.175781 L 372.933594 330.285156 C 351.507812 334.632812 334.632812 351.507812 330.285156 372.933594 L 253.175781 372.933594 C 258.464844 309.289062 309.289062 258.464844 372.933594 253.175781 Z M 253.175781 394.808594 L 330.285156 394.808594 C 334.632812 416.238281 351.507812 433.113281 372.933594 437.460938 L 372.933594 514.570312 C 309.289062 509.28125 258.464844 458.457031 253.175781 394.808594 Z M 394.808594 514.570312 L 394.808594 437.460938 C 416.238281 433.113281 433.113281 416.238281 437.460938 394.808594 L 514.570312 394.808594 C 509.28125 458.457031 458.457031 509.28125 394.808594 514.570312 Z M 394.808594 514.570312 " fill-opacity="1" fill-rule="nonzero"/></g><g clip-path="url(#cbf53fe074)"><path fill="#ffffff" d="M 416.628906 384.003906 C 416.628906 385.074219 416.578125 386.140625 416.472656 387.203125 C 416.367188 388.265625 416.210938 389.320312 416.003906 390.371094 C 415.792969 391.417969 415.535156 392.453125 415.226562 393.476562 C 414.914062 394.496094 414.554688 395.503906 414.144531 396.488281 C 413.738281 397.476562 413.28125 398.441406 412.777344 399.382812 C 412.273438 400.328125 411.726562 401.242188 411.132812 402.128906 C 410.539062 403.019531 409.902344 403.875 409.222656 404.703125 C 408.546875 405.527344 407.828125 406.320312 407.074219 407.074219 C 406.320312 407.828125 405.527344 408.546875 404.703125 409.222656 C 403.875 409.902344 403.019531 410.539062 402.128906 411.132812 C 401.242188 411.726562 400.328125 412.273438 399.382812 412.777344 C 398.441406 413.28125 397.476562 413.738281 396.488281 414.144531 C 395.503906 414.554688 394.496094 414.914062 393.476562 415.226562 C 392.453125 415.535156 391.417969 415.792969 390.371094 416.003906 C 389.320312 416.210938 388.265625 416.367188 387.203125 416.472656 C 386.140625 416.578125 385.074219 416.628906 384.003906 416.628906 C 382.9375 416.628906 381.871094 416.578125 380.808594 416.472656 C 379.742188 416.367188 378.6875 416.210938 377.640625 416.003906 C 376.59375 415.792969 375.558594 415.535156 374.535156 415.226562 C 373.511719 414.914062 372.507812 414.554688 371.519531 414.144531 C 370.53125 413.738281 369.566406 413.28125 368.625 412.777344 C 367.683594 412.273438 366.769531 411.726562 365.878906 411.132812 C 364.992188 410.539062 364.132812 409.902344 363.308594 409.222656 C 362.480469 408.546875 361.691406 407.828125 360.933594 407.074219 C 360.179688 406.320312 359.464844 405.527344 358.785156 404.703125 C 358.109375 403.875 357.472656 403.019531 356.878906 402.128906 C 356.285156 401.242188 355.734375 400.328125 355.230469 399.382812 C 354.730469 398.441406 354.273438 397.476562 353.863281 396.488281 C 353.453125 395.503906 353.09375 394.496094 352.785156 393.476562 C 352.472656 392.453125 352.214844 391.417969 352.007812 390.371094 C 351.796875 389.320312 351.640625 388.265625 351.535156 387.203125 C 351.433594 386.140625 351.378906 385.074219 351.378906 384.003906 C 351.378906 382.9375 351.433594 381.871094 351.535156 380.808594 C 351.640625 379.742188 351.796875 378.6875 352.007812 377.640625 C 352.214844 376.59375 352.472656 375.558594 352.785156 374.535156 C 353.09375 373.511719 353.453125 372.507812 353.863281 371.519531 C 354.273438 370.53125 354.730469 369.566406 355.230469 368.625 C 355.734375 367.683594 356.285156 366.769531 356.878906 365.878906 C 357.472656 364.992188 358.109375 364.132812 358.785156 363.308594 C 359.464844 362.480469 360.179688 361.691406 360.933594 360.9375 C 361.691406 360.179688 362.480469 359.464844 363.308594 358.785156 C 364.132812 358.109375 364.992188 357.472656 365.878906 356.878906 C 366.769531 356.285156 367.683594 355.734375 368.625 355.230469 C 369.566406 354.730469 370.53125 354.273438 371.519531 353.863281 C 372.507812 353.453125 373.511719 353.09375 374.535156 352.785156 C 375.558594 352.472656 376.59375 352.214844 377.640625 352.007812 C 378.6875 351.796875 379.742188 351.640625 380.808594 351.535156 C 381.871094 351.433594 382.9375 351.378906 384.003906 351.378906 C 385.074219 351.378906 386.140625 351.433594 387.203125 351.535156 C 388.265625 351.640625 389.320312 351.796875 390.371094 352.007812 C 391.417969 352.214844 392.453125 352.472656 393.476562 352.785156 C 394.496094 353.09375 395.503906 353.453125 396.488281 353.863281 C 397.476562 354.273438 398.441406 354.730469 399.382812 355.230469 C 400.328125 355.734375 401.242188 356.285156 402.128906 356.878906 C 403.019531 357.472656 403.875 358.109375 404.703125 358.785156 C 405.527344 359.464844 406.320312 360.179688 407.074219 360.9375 C 407.828125 361.691406 408.546875 362.480469 409.222656 363.308594 C 409.902344 364.132812 410.539062 364.992188 411.132812 365.878906 C 411.726562 366.769531 412.273438 367.683594 412.777344 368.625 C 413.28125 369.566406 413.738281 370.53125 414.144531 371.519531 C 414.554688 372.507812 414.914062 373.511719 415.226562 374.535156 C 415.535156 375.558594 415.792969 376.59375 416.003906 377.640625 C 416.210938 378.6875 416.367188 379.742188 416.472656 380.808594 C 416.578125 381.871094 416.628906 382.9375 416.628906 384.003906 Z M 416.628906 384.003906 " fill-opacity="1" fill-rule="nonzero"/></g></svg>