<svg xmlns="http://www.w3.org/2000/svg" xmlns:xlink="http://www.w3.org/1999/xlink" width="24" zoomAndPan="magnify" viewBox="0 0 768 767.999994" height="24" preserveAspectRatio="xMidYMid meet" version="1.0"><defs><clipPath id="ec349d6b2e"><path d="M 111 23.933594 L 333 23.933594 L 333 743.933594 L 111 743.933594 Z M 111 23.933594 " clip-rule="nonzero"/></clipPath><clipPath id="5832be4499"><path d="M 437 23.933594 L 657.851562 23.933594 L 657.851562 743.933594 L 437 743.933594 Z M 437 23.933594 " clip-rule="nonzero"/></clipPath></defs><g clip-path="url(#ec349d6b2e)"><path fill="#000000" d="M 178.082031 23.195312 L 265.304688 23.195312 C 266.398438 23.195312 267.496094 23.21875 268.589844 23.273438 C 269.683594 23.328125 270.773438 23.410156 271.867188 23.515625 C 272.957031 23.621094 274.042969 23.757812 275.128906 23.917969 C 276.210938 24.078125 277.289062 24.265625 278.363281 24.480469 C 279.4375 24.691406 280.507812 24.933594 281.570312 25.199219 C 282.632812 25.464844 283.6875 25.757812 284.738281 26.074219 C 285.785156 26.390625 286.828125 26.734375 287.859375 27.105469 C 288.890625 27.472656 289.910156 27.867188 290.925781 28.285156 C 291.9375 28.707031 292.9375 29.148438 293.929688 29.617188 C 294.917969 30.085938 295.898438 30.578125 296.863281 31.09375 C 297.828125 31.609375 298.78125 32.148438 299.722656 32.714844 C 300.660156 33.277344 301.585938 33.863281 302.5 34.46875 C 303.410156 35.078125 304.304688 35.707031 305.183594 36.359375 C 306.066406 37.011719 306.929688 37.6875 307.777344 38.382812 C 308.621094 39.078125 309.453125 39.792969 310.265625 40.527344 C 311.074219 41.261719 311.867188 42.015625 312.644531 42.792969 C 313.417969 43.566406 314.171875 44.359375 314.910156 45.167969 C 315.644531 45.980469 316.359375 46.808594 317.054688 47.65625 C 317.75 48.503906 318.425781 49.367188 319.078125 50.246094 C 319.730469 51.125 320.359375 52.019531 320.96875 52.929688 C 321.578125 53.839844 322.164062 54.765625 322.726562 55.707031 C 323.289062 56.644531 323.832031 57.597656 324.347656 58.5625 C 324.863281 59.527344 325.355469 60.507812 325.824219 61.496094 C 326.292969 62.484375 326.738281 63.488281 327.15625 64.5 C 327.574219 65.511719 327.96875 66.53125 328.339844 67.5625 C 328.707031 68.59375 329.050781 69.632812 329.371094 70.679688 C 329.6875 71.730469 329.980469 72.785156 330.246094 73.847656 C 330.511719 74.910156 330.753906 75.976562 330.964844 77.050781 C 331.179688 78.125 331.367188 79.203125 331.527344 80.285156 C 331.6875 81.371094 331.824219 82.457031 331.929688 83.546875 C 332.039062 84.636719 332.117188 85.726562 332.171875 86.820312 C 332.226562 87.914062 332.253906 89.007812 332.253906 90.105469 L 332.253906 676.171875 C 332.253906 677.265625 332.226562 678.363281 332.171875 679.457031 C 332.117188 680.550781 332.039062 681.640625 331.929688 682.730469 C 331.824219 683.820312 331.6875 684.90625 331.527344 685.988281 C 331.367188 687.074219 331.179688 688.152344 330.964844 689.226562 C 330.753906 690.300781 330.511719 691.367188 330.246094 692.429688 C 329.980469 693.492188 329.6875 694.546875 329.371094 695.59375 C 329.050781 696.644531 328.707031 697.683594 328.339844 698.714844 C 327.96875 699.746094 327.574219 700.765625 327.15625 701.777344 C 326.738281 702.789062 326.292969 703.789062 325.824219 704.78125 C 325.355469 705.769531 324.863281 706.746094 324.347656 707.714844 C 323.832031 708.679688 323.289062 709.632812 322.726562 710.570312 C 322.164062 711.511719 321.578125 712.433594 320.96875 713.347656 C 320.359375 714.257812 319.730469 715.152344 319.078125 716.03125 C 318.425781 716.910156 317.75 717.773438 317.054688 718.621094 C 316.359375 719.464844 315.644531 720.296875 314.910156 721.105469 C 314.171875 721.917969 313.417969 722.710938 312.644531 723.484375 C 311.867188 724.257812 311.074219 725.015625 310.265625 725.75 C 309.453125 726.484375 308.621094 727.199219 307.777344 727.894531 C 306.929688 728.589844 306.066406 729.261719 305.183594 729.914062 C 304.304688 730.566406 303.410156 731.199219 302.5 731.804688 C 301.585938 732.414062 300.660156 733 299.722656 733.5625 C 298.78125 734.125 297.828125 734.667969 296.863281 735.183594 C 295.898438 735.699219 294.917969 736.191406 293.929688 736.660156 C 292.9375 737.128906 291.9375 737.570312 290.925781 737.988281 C 289.910156 738.410156 288.890625 738.804688 287.859375 739.171875 C 286.828125 739.539062 285.785156 739.882812 284.738281 740.203125 C 283.6875 740.519531 282.632812 740.8125 281.570312 741.078125 C 280.507812 741.34375 279.4375 741.582031 278.363281 741.796875 C 277.289062 742.011719 276.210938 742.199219 275.128906 742.359375 C 274.042969 742.519531 272.957031 742.652344 271.867188 742.761719 C 270.773438 742.867188 269.683594 742.949219 268.589844 743.003906 C 267.496094 743.054688 266.398438 743.082031 265.304688 743.082031 L 178.082031 743.082031 C 176.988281 743.082031 175.890625 743.054688 174.796875 743.003906 C 173.703125 742.949219 172.609375 742.867188 171.519531 742.761719 C 170.429688 742.652344 169.34375 742.519531 168.257812 742.359375 C 167.175781 742.199219 166.097656 742.011719 165.019531 741.796875 C 163.945312 741.582031 162.878906 741.34375 161.816406 741.078125 C 160.753906 740.8125 159.695312 740.519531 158.648438 740.203125 C 157.601562 739.882812 156.558594 739.539062 155.527344 739.171875 C 154.496094 738.804688 153.472656 738.410156 152.460938 737.988281 C 151.449219 737.570312 150.449219 737.128906 149.457031 736.660156 C 148.46875 736.191406 147.488281 735.699219 146.523438 735.183594 C 145.554688 734.667969 144.605469 734.125 143.664062 733.5625 C 142.722656 733 141.796875 732.414062 140.886719 731.804688 C 139.976562 731.199219 139.082031 730.566406 138.199219 729.914062 C 137.320312 729.261719 136.457031 728.589844 135.609375 727.894531 C 134.761719 727.199219 133.933594 726.484375 133.121094 725.75 C 132.308594 725.015625 131.515625 724.257812 130.742188 723.484375 C 129.96875 722.710938 129.210938 721.917969 128.476562 721.105469 C 127.742188 720.296875 127.023438 719.464844 126.332031 718.621094 C 125.636719 717.773438 124.960938 716.910156 124.308594 716.03125 C 123.65625 715.152344 123.023438 714.257812 122.417969 713.34375 C 121.808594 712.433594 121.222656 711.511719 120.660156 710.570312 C 120.09375 709.632812 119.554688 708.679688 119.039062 707.714844 C 118.523438 706.746094 118.03125 705.769531 117.5625 704.78125 C 117.09375 703.789062 116.648438 702.789062 116.230469 701.777344 C 115.808594 700.765625 115.417969 699.746094 115.046875 698.714844 C 114.679688 697.683594 114.335938 696.644531 114.015625 695.59375 C 113.699219 694.546875 113.40625 693.492188 113.140625 692.429688 C 112.875 691.367188 112.632812 690.300781 112.417969 689.226562 C 112.207031 688.152344 112.019531 687.074219 111.859375 685.988281 C 111.699219 684.90625 111.5625 683.820312 111.457031 682.730469 C 111.347656 681.640625 111.269531 680.550781 111.214844 679.457031 C 111.160156 678.363281 111.132812 677.265625 111.132812 676.171875 L 111.132812 90.105469 C 111.132812 89.007812 111.160156 87.914062 111.214844 86.820312 C 111.269531 85.726562 111.347656 84.636719 111.457031 83.546875 C 111.5625 82.457031 111.699219 81.371094 111.859375 80.285156 C 112.019531 79.203125 112.207031 78.125 112.417969 77.050781 C 112.632812 75.976562 112.875 74.910156 113.140625 73.847656 C 113.40625 72.785156 113.699219 71.730469 114.015625 70.679688 C 114.335938 69.632812 114.679688 68.59375 115.046875 67.5625 C 115.417969 66.53125 115.808594 65.511719 116.230469 64.5 C 116.648438 63.488281 117.09375 62.484375 117.5625 61.496094 C 118.03125 60.507812 118.523438 59.527344 119.039062 58.5625 C 119.554688 57.597656 120.09375 56.644531 120.660156 55.707031 C 121.222656 54.765625 121.808594 53.839844 122.417969 52.929688 C 123.023438 52.019531 123.65625 51.125 124.308594 50.246094 C 124.960938 49.367188 125.636719 48.503906 126.332031 47.65625 C 127.023438 46.808594 127.742188 45.980469 128.476562 45.167969 C 129.210938 44.359375 129.96875 43.566406 130.742188 42.792969 C 131.515625 42.015625 132.308594 41.261719 133.121094 40.527344 C 133.933594 39.792969 134.761719 39.078125 135.609375 38.382812 C 136.457031 37.6875 137.320312 37.011719 138.199219 36.359375 C 139.082031 35.707031 139.976562 35.078125 140.886719 34.46875 C 141.796875 33.863281 142.722656 33.277344 143.664062 32.714844 C 144.605469 32.148438 145.554688 31.609375 146.523438 31.09375 C 147.488281 30.578125 148.46875 30.085938 149.457031 29.617188 C 150.449219 29.148438 151.449219 28.707031 152.460938 28.285156 C 153.472656 27.867188 154.496094 27.472656 155.527344 27.105469 C 156.558594 26.734375 157.601562 26.390625 158.648438 26.074219 C 159.695312 25.757812 160.753906 25.464844 161.816406 25.199219 C 162.878906 24.933594 163.945312 24.691406 165.019531 24.480469 C 166.097656 24.265625 167.175781 24.078125 168.257812 23.917969 C 169.34375 23.757812 170.429688 23.621094 171.519531 23.515625 C 172.609375 23.410156 173.703125 23.328125 174.796875 23.273438 C 175.890625 23.21875 176.988281 23.195312 178.082031 23.195312 Z M 178.082031 23.195312 " fill-opacity="1" fill-rule="nonzero"/></g><g clip-path="url(#5832be4499)"><path fill="#000000" d="M 504.472656 23.195312 L 591.695312 23.195312 C 592.789062 23.195312 593.882812 23.21875 594.976562 23.273438 C 596.074219 23.328125 597.164062 23.410156 598.253906 23.515625 C 599.347656 23.621094 600.433594 23.757812 601.515625 23.917969 C 602.601562 24.078125 603.679688 24.265625 604.753906 24.480469 C 605.828125 24.691406 606.898438 24.933594 607.960938 25.199219 C 609.023438 25.464844 610.078125 25.757812 611.128906 26.074219 C 612.175781 26.390625 613.214844 26.734375 614.246094 27.105469 C 615.28125 27.472656 616.300781 27.867188 617.3125 28.285156 C 618.324219 28.707031 619.328125 29.148438 620.316406 29.617188 C 621.308594 30.085938 622.285156 30.578125 623.253906 31.09375 C 624.21875 31.609375 625.171875 32.148438 626.113281 32.714844 C 627.050781 33.277344 627.976562 33.863281 628.886719 34.46875 C 629.800781 35.078125 630.695312 35.707031 631.574219 36.359375 C 632.453125 37.011719 633.320312 37.6875 634.164062 38.382812 C 635.011719 39.078125 635.839844 39.792969 636.652344 40.527344 C 637.464844 41.261719 638.257812 42.015625 639.035156 42.792969 C 639.808594 43.566406 640.5625 44.359375 641.300781 45.167969 C 642.035156 45.980469 642.75 46.808594 643.445312 47.65625 C 644.140625 48.503906 644.816406 49.367188 645.46875 50.246094 C 646.121094 51.125 646.75 52.019531 647.359375 52.929688 C 647.96875 53.839844 648.554688 54.765625 649.117188 55.707031 C 649.679688 56.644531 650.21875 57.597656 650.738281 58.5625 C 651.253906 59.527344 651.746094 60.507812 652.214844 61.496094 C 652.683594 62.484375 653.125 63.488281 653.546875 64.5 C 653.964844 65.511719 654.359375 66.53125 654.730469 67.5625 C 655.097656 68.59375 655.441406 69.632812 655.757812 70.679688 C 656.078125 71.730469 656.371094 72.785156 656.636719 73.847656 C 656.902344 74.910156 657.140625 75.976562 657.355469 77.050781 C 657.570312 78.125 657.757812 79.203125 657.917969 80.285156 C 658.078125 81.371094 658.210938 82.457031 658.320312 83.546875 C 658.425781 84.636719 658.507812 85.726562 658.5625 86.820312 C 658.617188 87.914062 658.640625 89.007812 658.640625 90.105469 L 658.640625 676.171875 C 658.640625 677.265625 658.617188 678.363281 658.5625 679.457031 C 658.507812 680.550781 658.425781 681.640625 658.320312 682.730469 C 658.210938 683.820312 658.078125 684.90625 657.917969 685.988281 C 657.757812 687.074219 657.570312 688.152344 657.355469 689.226562 C 657.140625 690.300781 656.902344 691.367188 656.636719 692.429688 C 656.371094 693.492188 656.078125 694.546875 655.757812 695.59375 C 655.441406 696.644531 655.097656 697.683594 654.730469 698.714844 C 654.359375 699.746094 653.964844 700.765625 653.546875 701.777344 C 653.125 702.789062 652.683594 703.789062 652.214844 704.78125 C 651.746094 705.769531 651.253906 706.746094 650.738281 707.714844 C 650.21875 708.679688 649.679688 709.632812 649.117188 710.570312 C 648.554688 711.511719 647.96875 712.433594 647.359375 713.347656 C 646.75 714.257812 646.121094 715.152344 645.46875 716.03125 C 644.816406 716.910156 644.140625 717.773438 643.445312 718.621094 C 642.75 719.464844 642.035156 720.296875 641.300781 721.105469 C 640.5625 721.917969 639.808594 722.710938 639.035156 723.484375 C 638.257812 724.257812 637.464844 725.015625 636.652344 725.75 C 635.839844 726.484375 635.011719 727.199219 634.164062 727.894531 C 633.320312 728.589844 632.453125 729.261719 631.574219 729.914062 C 630.695312 730.566406 629.800781 731.199219 628.886719 731.804688 C 627.976562 732.414062 627.050781 733 626.113281 733.5625 C 625.171875 734.125 624.21875 734.667969 623.253906 735.183594 C 622.285156 735.699219 621.308594 736.191406 620.316406 736.660156 C 619.328125 737.128906 618.324219 737.570312 617.3125 737.988281 C 616.300781 738.410156 615.28125 738.804688 614.246094 739.171875 C 613.214844 739.539062 612.175781 739.882812 611.128906 740.203125 C 610.078125 740.519531 609.023438 740.8125 607.960938 741.078125 C 606.898438 741.34375 605.828125 741.582031 604.753906 741.796875 C 603.679688 742.011719 602.601562 742.199219 601.515625 742.359375 C 600.433594 742.519531 599.347656 742.652344 598.253906 742.761719 C 597.164062 742.867188 596.074219 742.949219 594.976562 743.003906 C 593.882812 743.054688 592.789062 743.082031 591.695312 743.082031 L 504.472656 743.082031 C 503.375 743.082031 502.28125 743.054688 501.1875 743.003906 C 500.09375 742.949219 499 742.867188 497.910156 742.761719 C 496.820312 742.652344 495.734375 742.519531 494.648438 742.359375 C 493.566406 742.199219 492.484375 742.011719 491.410156 741.796875 C 490.335938 741.582031 489.269531 741.34375 488.203125 741.078125 C 487.140625 740.8125 486.085938 740.519531 485.039062 740.203125 C 483.988281 739.882812 482.949219 739.539062 481.917969 739.171875 C 480.886719 738.804688 479.863281 738.410156 478.851562 737.988281 C 477.839844 737.570312 476.839844 737.128906 475.847656 736.660156 C 474.855469 736.191406 473.878906 735.699219 472.914062 735.183594 C 471.945312 734.667969 470.992188 734.125 470.054688 733.5625 C 469.113281 733 468.1875 732.414062 467.277344 731.804688 C 466.367188 731.199219 465.472656 730.566406 464.589844 729.914062 C 463.710938 729.261719 462.847656 728.589844 462 727.894531 C 461.152344 727.199219 460.324219 726.484375 459.511719 725.75 C 458.699219 725.015625 457.90625 724.257812 457.132812 723.484375 C 456.359375 722.710938 455.601562 721.917969 454.867188 721.105469 C 454.128906 720.296875 453.414062 719.464844 452.71875 718.621094 C 452.023438 717.773438 451.351562 716.910156 450.699219 716.03125 C 450.046875 715.152344 449.414062 714.257812 448.804688 713.34375 C 448.199219 712.433594 447.613281 711.511719 447.046875 710.570312 C 446.484375 709.632812 445.945312 708.679688 445.429688 707.714844 C 444.910156 706.746094 444.417969 705.769531 443.949219 704.78125 C 443.484375 703.789062 443.039062 702.789062 442.621094 701.777344 C 442.199219 700.765625 441.804688 699.746094 441.4375 698.714844 C 441.066406 697.683594 440.722656 696.644531 440.40625 695.59375 C 440.089844 694.546875 439.796875 693.492188 439.53125 692.429688 C 439.261719 691.367188 439.023438 690.300781 438.808594 689.226562 C 438.597656 688.152344 438.410156 687.074219 438.246094 685.988281 C 438.085938 684.90625 437.953125 683.820312 437.847656 682.730469 C 437.738281 681.640625 437.65625 680.550781 437.605469 679.457031 C 437.550781 678.363281 437.523438 677.265625 437.523438 676.171875 L 437.523438 90.105469 C 437.523438 89.007812 437.550781 87.914062 437.605469 86.820312 C 437.65625 85.726562 437.738281 84.636719 437.847656 83.546875 C 437.953125 82.457031 438.085938 81.371094 438.246094 80.285156 C 438.410156 79.203125 438.597656 78.125 438.808594 77.050781 C 439.023438 75.976562 439.261719 74.910156 439.53125 73.847656 C 439.796875 72.785156 440.089844 71.730469 440.40625 70.679688 C 440.722656 69.632812 441.066406 68.59375 441.4375 67.5625 C 441.804688 66.53125 442.199219 65.511719 442.621094 64.5 C 443.039062 63.488281 443.484375 62.484375 443.949219 61.496094 C 444.417969 60.507812 444.910156 59.527344 445.429688 58.5625 C 445.945312 57.597656 446.484375 56.644531 447.046875 55.707031 C 447.613281 54.765625 448.199219 53.839844 448.804688 52.929688 C 449.414062 52.019531 450.046875 51.125 450.699219 50.246094 C 451.351562 49.367188 452.023438 48.503906 452.71875 47.65625 C 453.414062 46.808594 454.128906 45.980469 454.867188 45.167969 C 455.601562 44.359375 456.359375 43.566406 457.132812 42.792969 C 457.90625 42.015625 458.699219 41.261719 459.511719 40.527344 C 460.324219 39.792969 461.152344 39.078125 462 38.382812 C 462.847656 37.6875 463.710938 37.011719 464.589844 36.359375 C 465.472656 35.707031 466.367188 35.078125 467.277344 34.46875 C 468.1875 33.863281 469.113281 33.277344 470.054688 32.714844 C 470.992188 32.148438 471.945312 31.609375 472.914062 31.09375 C 473.878906 30.578125 474.855469 30.085938 475.847656 29.617188 C 476.839844 29.148438 477.839844 28.707031 478.851562 28.285156 C 479.863281 27.867188 480.886719 27.472656 481.917969 27.105469 C 482.949219 26.734375 483.988281 26.390625 485.039062 26.074219 C 486.085938 25.757812 487.140625 25.464844 488.203125 25.199219 C 489.269531 24.933594 490.335938 24.691406 491.410156 24.480469 C 492.484375 24.265625 493.566406 24.078125 494.648438 23.917969 C 495.734375 23.757812 496.820312 23.621094 497.910156 23.515625 C 499 23.410156 500.09375 23.328125 501.1875 23.273438 C 502.28125 23.21875 503.375 23.195312 504.472656 23.195312 Z M 504.472656 23.195312 " fill-opacity="1" fill-rule="nonzero"/></g></svg>