<svg xmlns="http://www.w3.org/2000/svg" xmlns:xlink="http://www.w3.org/1999/xlink" width="24" zoomAndPan="magnify" viewBox="0 0 768 767.999994" height="24" preserveAspectRatio="xMidYMid meet" version="1.0"><defs><clipPath id="f29fc31017"><path d="M 0 122.183594 L 768 122.183594 L 768 645.683594 L 0 645.683594 Z M 0 122.183594 " clip-rule="nonzero"/></clipPath></defs><g clip-path="url(#f29fc31017)"><path fill="#8f8f8f" d="M 384 122.183594 C 209.457031 122.183594 60.398438 230.722656 0.00390625 383.933594 C 60.398438 537.144531 209.457031 645.683594 384 645.683594 C 558.542969 645.683594 707.601562 537.144531 767.996094 383.933594 C 707.601562 230.722656 558.71875 122.183594 384 122.183594 Z M 384 558.433594 C 287.652344 558.433594 209.457031 480.253906 209.457031 383.933594 C 209.457031 287.609375 287.652344 209.433594 384 209.433594 C 480.347656 209.433594 558.542969 287.609375 558.542969 383.933594 C 558.542969 480.253906 480.347656 558.433594 384 558.433594 Z M 384 279.230469 C 326.226562 279.230469 279.273438 326.171875 279.273438 383.933594 C 279.273438 441.691406 326.226562 488.632812 384 488.632812 C 441.773438 488.632812 488.726562 441.691406 488.726562 383.933594 C 488.726562 326.171875 441.773438 279.230469 384 279.230469 Z M 384 279.230469 " fill-opacity="1" fill-rule="nonzero"/></g></svg>