<svg xmlns="http://www.w3.org/2000/svg" xmlns:xlink="http://www.w3.org/1999/xlink" width="32" zoomAndPan="magnify" viewBox="0 0 768 767.999994" height="32" preserveAspectRatio="xMidYMid meet" version="1.0"><defs><clipPath id="8f3f1aeb5c"><path d="M 0.535156 47.519531 L 767.519531 47.519531 L 767.519531 720.269531 L 0.535156 720.269531 Z M 0.535156 47.519531 " clip-rule="nonzero"/></clipPath></defs><g clip-path="url(#8f3f1aeb5c)"><path fill="#40a629" d="M 628.207031 74.054688 C 624.617188 77.085938 620.878906 80.398438 617.082031 83.878906 C 560.878906 127.324219 483.96875 215.722656 432.949219 288.828125 C 407.652344 325.070312 387.996094 359.351562 372.566406 388.605469 C 372.558594 388.605469 372.558594 388.613281 372.558594 388.613281 C 363.363281 405.417969 340.417969 446.90625 322.574219 479.128906 C 300.546875 446.105469 265.542969 404.40625 262.664062 404.820312 L 262.664062 404.828125 C 257.453125 398.199219 251.960938 391.65625 246.191406 385.472656 C 217.183594 354.40625 186.929688 331.410156 153.453125 327.386719 C 153.386719 327.363281 153.316406 327.328125 153.25 327.3125 C 119.429688 316.769531 -31.183594 374.917969 6.554688 390.636719 C 43.242188 405.914062 79.644531 429.316406 81.65625 430.609375 C 111.605469 450.816406 136.035156 472.253906 169.285156 528.242188 C 205.160156 588.640625 219.464844 634.945312 229.59375 659.652344 C 229.59375 659.652344 258.496094 752.886719 317.203125 708.171875 C 348.761719 684.128906 367.640625 656.566406 378.351562 636.207031 L 378.359375 636.207031 L 378.488281 635.949219 C 380.140625 632.792969 381.613281 629.800781 382.890625 627.039062 L 412.417969 567.304688 L 412.367188 567.328125 C 414.238281 563.589844 416.105469 559.710938 417.902344 555.503906 C 461.511719 453.566406 532.335938 328.40625 586.746094 255.882812 C 613.167969 220.660156 653.761719 180.0625 689.144531 145.515625 C 689.613281 145.125 748.199219 95.707031 765.777344 65.765625 C 783.429688 35.703125 661.632812 45.851562 628.207031 74.054688 " fill-opacity="1" fill-rule="nonzero"/></g></svg>