<svg xmlns="http://www.w3.org/2000/svg" xmlns:xlink="http://www.w3.org/1999/xlink" width="250" zoomAndPan="magnify" viewBox="0 0 300 74.999997" height="40" preserveAspectRatio="xMidYMid meet" version="1.0"><defs><g/></defs><g fill="#000000" fill-opacity="1"><g transform="translate(122.950866, 69.65983)"><g><path d="M 24 0 L 4.3125 0 L 4.3125 -56.34375 L 24 -56.34375 C 29.75 -56.34375 34.3125 -55.863281 37.6875 -54.90625 C 41.070312 -53.945312 43.785156 -52.421875 45.828125 -50.328125 C 47.867188 -48.222656 49.351562 -45.390625 50.28125 -41.828125 C 51.207031 -38.265625 51.671875 -33.726562 51.671875 -28.21875 C 51.671875 -18.445312 49.484375 -11.300781 45.109375 -6.78125 C 40.734375 -2.257812 33.695312 0 24 0 Z M 35.046875 -40.171875 C 34.203125 -41.421875 32.972656 -42.332031 31.359375 -42.90625 C 29.742188 -43.476562 27.289062 -43.765625 24 -43.765625 L 18.234375 -43.765625 L 18.234375 -13.03125 L 24 -13.03125 C 27.226562 -13.03125 29.648438 -13.296875 31.265625 -13.828125 C 32.890625 -14.367188 34.148438 -15.238281 35.046875 -16.4375 C 35.828125 -17.582031 36.394531 -19.097656 36.75 -20.984375 C 37.113281 -22.867188 37.296875 -25.28125 37.296875 -28.21875 C 37.296875 -31.207031 37.113281 -33.644531 36.75 -35.53125 C 36.394531 -37.425781 35.828125 -38.972656 35.046875 -40.171875 Z M 35.046875 -40.171875 "/></g></g></g><g fill="#000000" fill-opacity="1"><g transform="translate(-1.58281, 69.520538)"><g><path d="M 18.234375 -18.15625 L 18.234375 0 L 4.3125 0 L 4.3125 -56.34375 L 24.890625 -56.34375 C 33.578125 -56.34375 39.75 -54.875 43.40625 -51.9375 C 47.0625 -49 48.890625 -44.117188 48.890625 -37.296875 C 48.890625 -32.679688 47.914062 -28.921875 45.96875 -26.015625 C 44.019531 -23.109375 41.066406 -20.992188 37.109375 -19.671875 L 50.859375 0 L 34.140625 0 L 22.46875 -18.15625 Z M 34.78125 -37.296875 C 34.78125 -39.691406 34.0625 -41.367188 32.625 -42.328125 C 31.1875 -43.285156 28.609375 -43.765625 24.890625 -43.765625 L 18.234375 -43.765625 L 18.234375 -29.390625 L 24.890625 -29.390625 C 28.609375 -29.390625 31.1875 -29.972656 32.625 -31.140625 C 34.0625 -32.304688 34.78125 -34.359375 34.78125 -37.296875 Z M 34.78125 -37.296875 "/></g></g></g><g fill="#000000" fill-opacity="1"><g transform="translate(65.323361, 71.188566)"><g><path d="M 29.644531 -46.28125 L 22.179688 -25.449219 L 11.089844 -56.445312 C 11.019531 -56.730469 10.734375 -56.871094 10.378906 -56.871094 L 0.710938 -56.871094 C 0.140625 -56.871094 -0.140625 -56.445312 0.0703125 -56.019531 L 21.46875 -0.355469 C 21.753906 0.140625 22.605469 0.140625 22.820312 -0.355469 L 40.59375 -46.28125 Z M 29.644531 -46.28125 "/></g></g></g><g fill="#000000" fill-opacity="1"><g transform="translate(232.505617, 10.828099)"><g><path d="M -29.644531 46.28125 L -22.179688 25.449219 L -11.089844 56.445312 C -11.019531 56.730469 -10.734375 56.871094 -10.378906 56.871094 L -0.710938 56.871094 C -0.140625 56.871094 0.140625 56.445312 -0.0703125 56.019531 L -21.46875 0.355469 C -21.753906 -0.140625 -22.605469 -0.140625 -22.820312 0.355469 L -40.59375 46.28125 Z M -29.644531 46.28125 "/></g></g></g><g fill="#000000" fill-opacity="1"><g transform="translate(247.484547, 69.520538)"><g><path d="M 18.234375 -18.15625 L 18.234375 0 L 4.3125 0 L 4.3125 -56.34375 L 24.890625 -56.34375 C 33.578125 -56.34375 39.75 -54.875 43.40625 -51.9375 C 47.0625 -49 48.890625 -44.117188 48.890625 -37.296875 C 48.890625 -32.679688 47.914062 -28.921875 45.96875 -26.015625 C 44.019531 -23.109375 41.066406 -20.992188 37.109375 -19.671875 L 50.859375 0 L 34.140625 0 L 22.46875 -18.15625 Z M 34.78125 -37.296875 C 34.78125 -39.691406 34.0625 -41.367188 32.625 -42.328125 C 31.1875 -43.285156 28.609375 -43.765625 24.890625 -43.765625 L 18.234375 -43.765625 L 18.234375 -29.390625 L 24.890625 -29.390625 C 28.609375 -29.390625 31.1875 -29.972656 32.625 -31.140625 C 34.0625 -32.304688 34.78125 -34.359375 34.78125 -37.296875 Z M 34.78125 -37.296875 "/></g></g></g></svg>