<svg xmlns="http://www.w3.org/2000/svg" xmlns:xlink="http://www.w3.org/1999/xlink" width="400" zoomAndPan="magnify" viewBox="0 0 300 149.999998" height="200" preserveAspectRatio="xMidYMid meet" version="1.0"><defs><g/></defs><g fill="#ffffff" fill-opacity="1"><g transform="translate(128.307681, 101.362784)"><g><path d="M 19.75 0 L 3.546875 0 L 3.546875 -46.375 L 19.75 -46.375 C 24.476562 -46.375 28.234375 -45.976562 31.015625 -45.1875 C 33.804688 -44.394531 36.039062 -43.132812 37.71875 -41.40625 C 39.394531 -39.6875 40.613281 -37.359375 41.375 -34.421875 C 42.132812 -31.492188 42.515625 -27.757812 42.515625 -23.21875 C 42.515625 -15.1875 40.710938 -9.304688 37.109375 -5.578125 C 33.515625 -1.859375 27.726562 0 19.75 0 Z M 28.84375 -33.0625 C 28.15625 -34.09375 27.144531 -34.84375 25.8125 -35.3125 C 24.476562 -35.78125 22.457031 -36.015625 19.75 -36.015625 L 15.015625 -36.015625 L 15.015625 -10.71875 L 19.75 -10.71875 C 22.40625 -10.71875 24.398438 -10.9375 25.734375 -11.375 C 27.066406 -11.820312 28.101562 -12.539062 28.84375 -13.53125 C 29.476562 -14.46875 29.941406 -15.710938 30.234375 -17.265625 C 30.535156 -18.816406 30.6875 -20.800781 30.6875 -23.21875 C 30.6875 -25.6875 30.535156 -27.695312 30.234375 -29.25 C 29.941406 -30.800781 29.476562 -32.070312 28.84375 -33.0625 Z M 28.84375 -33.0625 "/></g></g></g><g fill="#ffffff" fill-opacity="1"><g transform="translate(25.820602, 101.24815)"><g><path d="M 15.015625 -14.9375 L 15.015625 0 L 3.546875 0 L 3.546875 -46.375 L 20.484375 -46.375 C 27.628906 -46.375 32.707031 -45.164062 35.71875 -42.75 C 38.726562 -40.332031 40.234375 -36.3125 40.234375 -30.6875 C 40.234375 -26.894531 39.429688 -23.800781 37.828125 -21.40625 C 36.222656 -19.019531 33.796875 -17.285156 30.546875 -16.203125 L 41.859375 0 L 28.109375 0 L 18.484375 -14.9375 Z M 28.625 -30.6875 C 28.625 -32.664062 28.03125 -34.046875 26.84375 -34.828125 C 25.65625 -35.617188 23.535156 -36.015625 20.484375 -36.015625 L 15.015625 -36.015625 L 15.015625 -24.1875 L 20.484375 -24.1875 C 23.535156 -24.1875 25.65625 -24.664062 26.84375 -25.625 C 28.03125 -26.582031 28.625 -28.269531 28.625 -30.6875 Z M 28.625 -30.6875 "/></g></g></g><g fill="#ffffff" fill-opacity="1"><g transform="translate(80.882092, 102.237436)"><g><path d="M 24.394531 -38.082031 L 18.253906 -20.941406 L 9.125 -46.449219 C 9.066406 -46.683594 8.832031 -46.800781 8.539062 -46.800781 L 0.585938 -46.800781 C 0.117188 -46.800781 -0.117188 -46.449219 0.0585938 -46.097656 L 17.667969 -0.292969 C 17.902344 0.117188 18.601562 0.117188 18.777344 -0.292969 L 33.402344 -38.082031 Z M 24.394531 -38.082031 "/></g></g></g><g fill="#ffffff" fill-opacity="1"><g transform="translate(218.466831, 53.539379)"><g><path d="M -24.394531 38.082031 L -18.253906 20.941406 L -9.125 46.449219 C -9.066406 46.683594 -8.832031 46.800781 -8.539062 46.800781 L -0.585938 46.800781 C -0.117188 46.800781 0.117188 46.449219 -0.0585938 46.097656 L -17.667969 0.292969 C -17.902344 -0.117188 -18.601562 -0.117188 -18.777344 0.292969 L -33.402344 38.082031 Z M -24.394531 38.082031 "/></g></g></g><g fill="#ffffff" fill-opacity="1"><g transform="translate(230.794751, 101.24815)"><g><path d="M 15.015625 -14.9375 L 15.015625 0 L 3.546875 0 L 3.546875 -46.375 L 20.484375 -46.375 C 27.628906 -46.375 32.707031 -45.164062 35.71875 -42.75 C 38.726562 -40.332031 40.234375 -36.3125 40.234375 -30.6875 C 40.234375 -26.894531 39.429688 -23.800781 37.828125 -21.40625 C 36.222656 -19.019531 33.796875 -17.285156 30.546875 -16.203125 L 41.859375 0 L 28.109375 0 L 18.484375 -14.9375 Z M 28.625 -30.6875 C 28.625 -32.664062 28.03125 -34.046875 26.84375 -34.828125 C 25.65625 -35.617188 23.535156 -36.015625 20.484375 -36.015625 L 15.015625 -36.015625 L 15.015625 -24.1875 L 20.484375 -24.1875 C 23.535156 -24.1875 25.65625 -24.664062 26.84375 -25.625 C 28.03125 -26.582031 28.625 -28.269531 28.625 -30.6875 Z M 28.625 -30.6875 "/></g></g></g></svg>